<?xml version="1.0" encoding="UTF-8" standalone="no"?>
<svg
   xmlns:dc="http://purl.org/dc/elements/1.1/"
   xmlns:cc="http://creativecommons.org/ns#"
   xmlns:rdf="http://www.w3.org/1999/02/22-rdf-syntax-ns#"
   xmlns:svg="http://www.w3.org/2000/svg"
   xmlns="http://www.w3.org/2000/svg"
   xmlns:sodipodi="http://sodipodi.sourceforge.net/DTD/sodipodi-0.dtd"
   xmlns:inkscape="http://www.inkscape.org/namespaces/inkscape"
   sodipodi:docname="bagel.svg"
   inkscape:version="1.0 (4035a4fb49, 2020-05-01)"
   id="svg1426"
   version="1.1"
   viewBox="0 0 600 600"
   height="600mm"
   width="600mm">
  <defs
     id="defs1420" />
  <sodipodi:namedview
     inkscape:window-maximized="1"
     inkscape:window-y="-9"
     inkscape:window-x="-9"
     inkscape:window-height="1001"
     inkscape:window-width="1920"
     showgrid="false"
     inkscape:document-rotation="0"
     inkscape:current-layer="layer1"
     inkscape:document-units="mm"
     inkscape:cy="1380.6846"
     inkscape:cx="1133.8583"
     inkscape:zoom="0.32411458"
     inkscape:pageshadow="2"
     inkscape:pageopacity="0.0"
     borderopacity="1.0"
     bordercolor="#666666"
     pagecolor="#ffffff"
     id="base" />
  <metadata
     id="metadata1423">
    <rdf:RDF>
      <cc:Work
         rdf:about="">
        <dc:format>image/svg+xml</dc:format>
        <dc:type
           rdf:resource="http://purl.org/dc/dcmitype/StillImage" />
        <dc:title></dc:title>
      </cc:Work>
    </rdf:RDF>
  </metadata>
  <g
     id="layer1"
     inkscape:groupmode="layer"
     inkscape:label="Layer 1">
    <g
       style="opacity:1"
       id="g2541">
      <path
         id="path2543"
         d="m 290.50915,110.74053 c -99.51138,0.0781 -180.1413,83.65279 -180.14121,186.72037 -8e-5,103.12285 80.71313,186.72047 180.2779,186.7204 99.56478,9e-5 180.27801,-83.59753 180.27793,-186.7204 6e-5,-103.12285 -80.71316,-186.72046 -180.27793,-186.72037 0,0 -0.13669,0 -0.13669,0 z m 0.12073,115.60069 c 1.80496,0.0137 3.60752,0.10991 5.39348,0.24856 14.90873,1.14198 29.46822,7.66916 40.53741,17.99632 9.56883,8.91284 16.64116,20.72399 20.13798,33.48116 3.54621,12.82875 3.39051,26.60592 -0.14119,39.35677 -3.38776,12.19272 -10.13099,23.31157 -19.0628,31.96963 -9.51401,9.30641 -21.6906,15.5901 -34.55318,18.02371 -13.00873,2.51804 -26.62542,0.90771 -38.83006,-4.3739 -9.05329,-3.87303 -17.25619,-9.82798 -23.86801,-17.31212 -7.48889,-8.4229 -13.12428,-18.93593 -15.94344,-30.03796 -2.38564,-9.33018 -2.91781,-19.16093 -1.55418,-28.72538 2.09505,-15.18188 9.28827,-29.46234 19.81816,-40.20168 5.21949,-5.37485 11.3614,-9.86486 17.95665,-13.15475 8.38074,-4.19488 17.63511,-6.64571 26.86062,-7.1975 1.08179,-0.0597 2.16559,-0.0811 3.24856,-0.0729 z"
         style="color:#000000;font-style:normal;font-variant:normal;font-weight:normal;font-stretch:normal;font-size:medium;line-height:normal;font-family:sans-serif;font-variant-ligatures:normal;font-variant-position:normal;font-variant-caps:normal;font-variant-numeric:normal;font-variant-alternates:normal;font-variant-east-asian:normal;font-feature-settings:normal;font-variation-settings:normal;text-indent:0;text-align:start;text-decoration:none;text-decoration-line:none;text-decoration-style:solid;text-decoration-color:#000000;letter-spacing:normal;word-spacing:normal;text-transform:none;writing-mode:lr-tb;direction:ltr;text-orientation:mixed;dominant-baseline:auto;baseline-shift:baseline;text-anchor:start;white-space:normal;shape-padding:0;shape-margin:0;inline-size:0;clip-rule:nonzero;display:inline;overflow:visible;visibility:visible;isolation:auto;mix-blend-mode:normal;color-interpolation:sRGB;color-interpolation-filters:linearRGB;solid-color:#000000;solid-opacity:1;vector-effect:none;fill:#efa16e;fill-opacity:1;fill-rule:nonzero;stroke:none;stroke-width:8.31932;stroke-linecap:round;stroke-linejoin:round;stroke-miterlimit:4;stroke-dasharray:none;stroke-dashoffset:0;stroke-opacity:1;color-rendering:auto;image-rendering:auto;shape-rendering:auto;text-rendering:auto;enable-background:accumulate;stop-color:#000000;stop-opacity:1" />
      <path
         sodipodi:nodetypes="ccccscccccscccccccccscscccccscccccccccccccccccscccccscccccccssccccccccc"
         id="path2545"
         d="m 290.50586,106.58008 c -101.83861,0.0799 -184.29697,85.64387 -184.29688,190.88086 -8e-5,105.29334 82.54435,190.88093 184.4375,190.88086 101.89317,8e-5 184.43759,-85.58751 184.4375,-190.88086 7e-5,-105.29334 -82.54434,-190.88095 -184.4375,-190.88086 h -0.13671 -0.004 z m 0.004,8.32031 h 0.002 0.13476 c 97.23639,-8e-5 176.11725,81.60818 176.11719,182.56055 8e-5,100.95238 -78.88079,182.56063 -176.11719,182.56054 -97.23638,7e-5 -176.11921,-81.60817 -176.11914,-182.56054 -9e-5,-100.89749 78.79919,-182.48319 175.98243,-182.56055 z m 0.15234,107.28125 c -1.15878,-0.009 -2.32996,0.013 -3.50977,0.0781 -0.006,6.5e-4 -0.013,0.001 -0.0195,0.002 -9.79278,0.58572 -19.57773,3.17763 -28.47461,7.63086 -7.02134,3.50333 -13.52742,8.26339 -19.07422,13.97461 -9.7e-4,0.001 -0.003,9.5e-4 -0.004,0.002 -11.14864,11.37674 -18.73235,26.4246 -20.95508,42.52539 -1.8e-4,10e-4 1.8e-4,0.003 0,0.004 -1.43767,10.10025 -0.87684,20.46065 1.64258,30.31836 3.5e-4,0.001 0.002,0.003 0.002,0.004 3.2e-4,0.001 -3.1e-4,0.003 0,0.004 2.99108,11.77365 8.92459,22.84048 16.86524,31.77148 7.01516,7.93794 15.70712,14.24864 25.33789,18.36914 8e-4,3.5e-4 10e-4,0.002 0.002,0.002 12.9474,5.59946 27.38575,7.31468 41.24023,4.63672 13.67426,-2.58718 26.57115,-9.243 36.6836,-19.13282 9.45401,-9.1673 16.57286,-20.90203 20.16601,-33.83398 l 0.002,-0.002 c 3.72833,-13.46079 3.90062,-27.97457 0.14453,-41.56836 v -0.002 c -3.70171,-13.50335 -11.15201,-25.95524 -21.3125,-35.41992 -11.76026,-10.9719 -27.15006,-17.8851 -43.05664,-19.10351 l 0.004,0.002 c -1.74688,-0.13562 -3.54014,-0.22293 -5.35742,-0.24609 -0.009,-7e-4 -0.0182,-0.001 -0.0273,-0.002 -0.0994,-0.008 -0.19909,-0.0127 -0.29883,-0.0137 z M 290.5978,230.5 c 1.67817,0.0127 3.38484,0.1029 5.10351,0.23633 h 0.004 c 3.00696,0.23033 6.00541,0.69788 8.96334,1.38713 10.7261,2.49939 20.91944,7.91401 29.05424,15.50349 l 0.004,0.004 c 8.97569,8.36036 15.66909,19.52575 18.96094,31.53516 6.6e-4,0.003 10e-4,0.007 0.002,0.01 3.33377,12.06024 3.19274,25.09745 -0.14062,37.13477 -3.18123,11.44941 -9.54407,21.94816 -17.94922,30.0957 -0.005,0.005 -0.009,0.009 -0.0137,0.0137 -8.91482,8.7203 -20.36934,14.63055 -32.41797,16.91016 -0.006,10e-4 -0.0117,0.003 -0.0176,0.004 -12.15217,2.35225 -24.93421,0.8487 -36.38672,-4.10742 -0.005,-0.003 -0.0104,-0.005 -0.0156,-0.008 -8.47108,-3.62396 -16.18027,-9.2169 -22.38672,-16.24219 -0.003,-0.003 -0.007,-0.007 -0.01,-0.01 -7.03538,-7.91283 -12.37165,-17.86937 -15.01953,-28.29688 l -0.002,-0.008 c -2.2487,-8.79462 -2.75287,-18.08698 -1.4668,-27.10742 0.001,-0.006 0.003,-0.0117 0.004,-0.0176 1.96708,-14.25455 8.76564,-27.76009 18.66797,-37.85938 0.005,-0.005 0.009,-0.009 0.0137,-0.0137 4.8899,-5.03545 10.66259,-9.25454 16.82812,-12.33008 l 0.006,-0.002 c 7.85929,-3.93387 16.57605,-6.24373 25.22852,-6.76367 0.98377,-0.0543 1.97916,-0.076 2.98633,-0.0684 z"
         style="color:#000000;font-style:normal;font-variant:normal;font-weight:normal;font-stretch:normal;font-size:medium;line-height:normal;font-family:sans-serif;font-variant-ligatures:normal;font-variant-position:normal;font-variant-caps:normal;font-variant-numeric:normal;font-variant-alternates:normal;font-variant-east-asian:normal;font-feature-settings:normal;font-variation-settings:normal;text-indent:0;text-align:start;text-decoration:none;text-decoration-line:none;text-decoration-style:solid;text-decoration-color:#000000;letter-spacing:normal;word-spacing:normal;text-transform:none;writing-mode:lr-tb;direction:ltr;text-orientation:mixed;dominant-baseline:auto;baseline-shift:baseline;text-anchor:start;white-space:normal;shape-padding:0;shape-margin:0;inline-size:0;clip-rule:nonzero;display:inline;overflow:visible;visibility:visible;isolation:auto;mix-blend-mode:normal;color-interpolation:sRGB;color-interpolation-filters:linearRGB;solid-color:#000000;solid-opacity:1;vector-effect:none;fill:#ac6c42;fill-opacity:1;fill-rule:nonzero;stroke:none;stroke-width:8.31932;stroke-linecap:round;stroke-linejoin:round;stroke-miterlimit:4;stroke-dasharray:none;stroke-dashoffset:0;stroke-opacity:1;color-rendering:auto;image-rendering:auto;shape-rendering:auto;text-rendering:auto;enable-background:accumulate;stop-color:#000000;stop-opacity:1" />
    </g>
    <path
       d="m 280.00996,139.8617 c -6.92048,0.11998 -13.87157,0.86906 -20.67852,1.97249 -19.52698,3.26612 -38.51393,10.37404 -55.15504,21.21378 -26.32385,17.05116 -46.97679,42.79815 -57.57222,72.34632 -3.44405,9.58447 -5.85868,19.42341 -7.24296,29.50962 -2.49333,17.98168 -1.5537,36.42678 2.82678,54.07621 5.82551,23.72586 17.65407,46.04235 34.35516,63.92846 15.16898,16.30737 34.0345,29.14273 54.88137,37.03773 22.26759,8.45152 46.66064,11.26313 70.27382,8.11256 23.77131,-3.14223 46.72762,-12.24699 66.1238,-26.45016 14.62944,-10.66744 27.26456,-24.0663 37.01203,-39.32709 11.9786,-18.8076 19.4819,-40.48723 21.81488,-62.64431 2.07611,-19.73264 3.3e-4,-39.81763 -5.98414,-58.75213 -8.9711,-28.57165 -27.2586,-54.1808 -51.25126,-72.14899 -17.56656,-13.15869 -38.30252,-22.26241 -59.8666,-26.33145 -9.74152,-1.83217 -19.62856,-2.59832 -29.5371,-2.54304 z m 2.70117,31.8125 c 26.42108,0.52388 52.66544,10.06574 72.96815,27.0385 27.9741,23.2492 42.93678,60.86451 39.32998,96.97659 -3.09765,32.47739 -21.27461,63.05248 -48.04319,81.62612 -18.85625,13.13879 -41.84923,20.057 -64.7983,20.001 -14.36496,-3e-4 -28.72327,-2.81085 -42.00428,-8.29227 -27.55365,-11.31767 -50.43818,-33.82742 -61.6744,-61.47288 -11.40194,-27.84963 -11.29459,-60.31088 0.80016,-87.91807 12.47344,-28.59843 37.26461,-51.64792 66.86793,-61.62505 11.76583,-3.97897 24.15961,-5.92286 36.55395,-6.33394 z"
       style="opacity:0.38032787;fill:#f9f9f9;fill-opacity:1;stroke:none;stroke-width:8.46667;stroke-linecap:round;stroke-linejoin:round;stroke-opacity:1"
       id="path2107" />
    <path
       id="path2253"
       d="m 432.50404,285.1462 c 0.98232,19.46868 -1.54654,39.1227 -7.48792,57.68795 -10.43871,33.30853 -32.45199,62.68342 -60.98077,82.69417 -26.60433,18.71956 -59.04428,28.85234 -91.54427,29.06025 -28.83832,0.27262 -57.62345,-7.66133 -82.45853,-22.27305 0.0425,0.0457 0.084,0.0923 0.1266,0.13795 15.16898,16.30739 34.03454,29.14256 54.88141,37.03754 22.2676,8.45153 46.66057,11.26324 70.27373,8.11268 23.77133,-3.14224 46.72745,-12.2469 66.12363,-26.45005 14.62943,-10.66744 27.26473,-24.06653 37.0122,-39.32732 11.97858,-18.80759 19.48172,-40.48715 21.81471,-62.64423 2.07608,-19.73265 0,-39.81746 -5.98414,-58.75197 -0.55671,-1.773 -1.14906,-3.53486 -1.77665,-5.28392 z"
       style="opacity:0.144262;fill:#6c5353;fill-opacity:1;stroke:none;stroke-width:8.46667;stroke-linecap:round;stroke-linejoin:round;stroke-opacity:1" />
    <path
       id="path2107-3"
       d="m 277.53773,186.2186 c -11.04607,0.38155 -22.19523,2.49778 -32.51606,6.94894 -14.91886,6.46774 -28.06674,17.66027 -37.73546,31.61357 -4.40815,6.36191 -8.12755,13.4138 -10.9519,20.82508 -6.2394,16.4495 -8.04542,34.71848 -5.5153,52.26091 1.07633,7.44794 2.93816,14.845 5.59963,21.90977 0.23815,0.63352 0.48468,1.26283 0.73593,1.88979 0.15421,-14.89977 2.93287,-29.75851 8.39263,-43.42731 11.37245,-28.59843 33.97522,-51.64806 60.96556,-61.62519 10.72732,-3.97896 22.02704,-5.9229 33.32739,-6.33398 16.07179,0.34953 32.06977,4.71845 46.43713,12.62507 -3.07159,-4.27963 -6.48324,-8.2579 -10.20135,-11.84889 -9.06333,-8.78916 -19.81816,-15.40895 -31.2807,-19.60914 -8.75576,-3.19797 -18.02753,-5.02826 -27.2575,-5.22862 z"
       style="opacity:0.245902;fill:#6c5353;fill-opacity:1;stroke:none;stroke-width:8.08438;stroke-linecap:round;stroke-linejoin:round;stroke-opacity:1" />
    <rect
       style="opacity:1;fill:#deaa87;fill-opacity:1;stroke:#c89471;stroke-width:1.37695;stroke-linecap:round;stroke-linejoin:round;stroke-opacity:1"
       id="rect2329"
       width="18.006857"
       height="4.826509"
       x="142.81505"
       y="273.68872"
       ry="1.1541654"
       transform="rotate(-36.310889)" />
    <path
       d="m 308.5957,165.29883 c -1.98466,1.46137 -3.96593,2.92717 -5.93164,4.41406 0.30238,0.44452 0.65107,0.85589 0.95313,1.30078 3.96955,-2.93617 7.99301,-5.82304 11.92969,-8.8125 -0.29967,-0.44008 -0.64949,-0.8442 -0.94532,-1.28711 -2.00195,1.46159 -4.0039,2.92318 -6.00586,4.38477 z"
       style="opacity:1;fill:#deaa87;fill-opacity:1;stroke:#c89471;stroke-width:1.37695;stroke-linecap:round;stroke-linejoin:round;stroke-opacity:1"
       id="rect2331" />
    <path
       d="m 406.42773,221.66602 c -1.84345,1.35748 -3.6831,2.72014 -5.51171,4.09765 0.30741,0.81262 0.84263,0.0163 1.30567,-0.26234 3.36377,-2.49606 6.77294,-4.93118 10.10643,-7.46813 -0.29949,-0.80135 -0.84272,0.0154 -1.29897,0.27049 -1.5338,1.12077 -3.06761,2.24155 -4.60142,3.36233 z"
       style="opacity:1;fill:#deaa87;fill-opacity:1;stroke:#c89471;stroke-width:1.37695;stroke-linecap:round;stroke-linejoin:round;stroke-opacity:1"
       id="rect2333" />
    <rect
       style="opacity:1;fill:#deaa87;fill-opacity:1;stroke:#c89471;stroke-width:1.37695;stroke-linecap:round;stroke-linejoin:round;stroke-opacity:1"
       id="rect2335"
       width="18.006857"
       height="4.826509"
       x="82.611115"
       y="539.1626"
       ry="1.1541654"
       transform="rotate(-36.310889)" />
    <path
       d="m 250.70508,421.23438 c -1.84419,1.35911 -3.68536,2.72235 -5.51758,4.09765 0.30549,0.81546 0.84277,0.019 1.30591,-0.26008 3.36543,-2.49619 6.7726,-4.93741 10.11011,-7.47039 -0.30291,-0.79299 -0.84275,0.0187 -1.29918,0.27411 -1.53309,1.11957 -3.06618,2.23914 -4.59926,3.35871 z"
       style="opacity:1;fill:#deaa87;fill-opacity:1;stroke:#c89471;stroke-width:1.37695;stroke-linecap:round;stroke-linejoin:round;stroke-opacity:1"
       id="rect2337" />
    <rect
       style="opacity:1;fill:#deaa87;fill-opacity:1;stroke:#c89471;stroke-width:1.37695;stroke-linecap:round;stroke-linejoin:round;stroke-opacity:1"
       id="rect2339"
       width="18.006857"
       height="4.826509"
       x="-51.928871"
       y="355.86295"
       ry="1.1541654"
       transform="rotate(-36.310889)" />
    <rect
       style="opacity:1;fill:#deaa87;fill-opacity:1;stroke:#c89471;stroke-width:1.37695;stroke-linecap:round;stroke-linejoin:round;stroke-opacity:1"
       id="rect2341"
       width="18.006857"
       height="4.826509"
       x="-33.893131"
       y="282.80969"
       ry="1.1541654"
       transform="rotate(-36.310889)" />
    <rect
       style="opacity:1;fill:#deaa87;fill-opacity:1;stroke:#c89471;stroke-width:1.37695;stroke-linecap:round;stroke-linejoin:round;stroke-opacity:1"
       id="rect2343"
       width="18.006857"
       height="4.826509"
       x="74.300041"
       y="286.21857"
       ry="1.1541654"
       transform="rotate(-36.310889)" />
    <path
       d="m 208.54297,161.87109 c -2.9137,2.13591 -5.82365,4.27513 -8.7207,6.4336 0.3311,0.85582 0.91118,-0.0652 1.39761,-0.31804 3.34924,-2.46124 6.70855,-4.9072 10.02817,-7.40853 -0.30283,-0.7912 -0.84114,0.0172 -1.29903,0.27165 -0.46868,0.34044 -0.93737,0.68088 -1.40605,1.02132 z"
       style="opacity:1;fill:#deaa87;fill-opacity:1;stroke:#c89471;stroke-width:1.37695;stroke-linecap:round;stroke-linejoin:round;stroke-opacity:1"
       id="rect2345" />
    <rect
       style="opacity:1;fill:#deaa87;fill-opacity:1;stroke:#c89471;stroke-width:1.37695;stroke-linecap:round;stroke-linejoin:round;stroke-opacity:1"
       id="rect2347"
       width="18.006857"
       height="4.826509"
       x="-388.33435"
       y="206.57834"
       ry="1.1541654"
       transform="rotate(-119.15491)" />
    <rect
       style="opacity:1;fill:#deaa87;fill-opacity:1;stroke:#c89471;stroke-width:1.37695;stroke-linecap:round;stroke-linejoin:round;stroke-opacity:1"
       id="rect2349"
       width="18.006857"
       height="4.826509"
       x="-388.33435"
       y="206.57834"
       ry="1.1541654"
       transform="rotate(-119.15491)" />
    <path
       d="m 410.55469,285.72656 c -0.65355,0.19114 -0.78411,0.56738 -0.32677,1.07705 2.29603,4.08184 4.52395,8.20245 6.8756,12.25303 0.48589,-0.24241 0.94655,-0.53277 1.42187,-0.79492 -1.53556,-2.64231 -2.98181,-5.36137 -4.48843,-8.0237 -0.91357,-1.64312 -1.8348,-3.25911 -2.76352,-4.89622 -0.23959,0.12825 -0.47917,0.25651 -0.71875,0.38476 z"
       style="opacity:1;fill:#deaa87;fill-opacity:1;stroke:#c89471;stroke-width:1.37695;stroke-linecap:round;stroke-linejoin:round;stroke-opacity:1"
       id="rect2391" />
    <rect
       style="opacity:1;fill:#deaa87;fill-opacity:1;stroke:#c89471;stroke-width:1.37695;stroke-linecap:round;stroke-linejoin:round;stroke-opacity:1"
       id="rect2435"
       width="18.006857"
       height="4.826509"
       x="-480.47571"
       y="-184.59207"
       ry="1.1541654"
       transform="rotate(-171.62941)"
       inkscape:transform-center-x="35.675127"
       inkscape:transform-center-y="-0.71065956" />
    <rect
       style="opacity:1;fill:#deaa87;fill-opacity:1;stroke:#c89471;stroke-width:1.37695;stroke-linecap:round;stroke-linejoin:round;stroke-opacity:1"
       id="rect2437"
       width="18.006857"
       height="4.826509"
       x="-385.85574"
       y="-336.0513"
       ry="1.1541654"
       transform="rotate(-171.62941)"
       inkscape:transform-center-x="35.675133"
       inkscape:transform-center-y="-0.7106437" />
    <path
       d="m 193.79102,383.93359 c -0.0575,0.49555 -0.11216,1.03897 -0.19727,1.50196 4.89406,0.68515 9.83075,1.52505 14.70117,2.09765 0.0801,-0.52061 0.0614,-1.06011 0.23828,-1.5625 -4.90688,-0.71712 -9.81515,-1.49463 -14.72656,-2.12304 z"
       inkscape:transform-center-y="-0.71065582"
       inkscape:transform-center-x="35.67513"
       style="opacity:1;fill:#deaa87;fill-opacity:1;stroke:#c89471;stroke-width:1.37695;stroke-linecap:round;stroke-linejoin:round;stroke-opacity:1"
       id="rect2439" />
    <path
       d="m 179.95898,201.53711 c -0.0644,0.46202 -0.19454,1.06491 -0.10351,1.44141 4.81218,0.64477 9.6064,1.50793 14.43555,2.05859 0.52152,0.2375 0.16912,-0.59316 0.32937,-0.84271 0.25906,-0.59051 -0.0305,-0.84075 -0.6482,-0.80451 -4.62484,-0.64404 -9.30633,-1.46446 -13.98196,-1.96997 l -0.0258,0.0966 z"
       inkscape:transform-center-y="-0.7106552"
       inkscape:transform-center-x="35.675142"
       style="opacity:1;fill:#6c5d53;fill-opacity:1;stroke:none;stroke-width:1.37695;stroke-linecap:round;stroke-linejoin:round;stroke-opacity:1"
       id="rect2452" />
    <path
       d="m 300.61719,207.16211 c -0.33432,0.73844 -0.27226,1.58573 -0.3711,2.36914 0.70115,0.32616 1.56716,0.26151 2.32933,0.45234 3.74773,0.54363 7.60573,1.16636 11.34736,1.65507 0.65919,0.0586 1.35967,0.1839 1.9991,0.15431 0.33079,-0.73125 0.23887,-1.57763 0.37695,-2.34961 -0.37625,-0.37424 -1.06537,-0.21696 -1.56411,-0.38838 -4.69159,-0.64367 -9.35544,-1.50327 -14.07066,-1.96709 z"
       inkscape:transform-center-y="-0.71065492"
       inkscape:transform-center-x="35.675135"
       style="opacity:1;fill:#6c5d53;fill-opacity:1;stroke:none;stroke-width:1.37695;stroke-linecap:round;stroke-linejoin:round;stroke-opacity:1"
       id="rect2454" />
    <rect
       inkscape:transform-center-y="-0.71065471"
       inkscape:transform-center-x="35.675132"
       transform="rotate(-171.62941)"
       ry="1.1541654"
       y="-119.57535"
       x="-401.88284"
       height="4.826509"
       width="18.006857"
       id="rect2456"
       style="opacity:1;fill:#6c5d53;fill-opacity:1;stroke:none;stroke-width:1.37695;stroke-linecap:round;stroke-linejoin:round;stroke-opacity:1" />
    <path
       d="m 424.27344,269.36523 c -0.31007,0.70008 -0.16533,1.52379 -0.41602,2.25391 -0.13317,0.58827 0.60091,0.35187 0.91973,0.49145 4.86918,0.70385 9.80977,1.49268 14.7209,2.1316 0.29868,-0.66138 0.15408,-1.45267 0.4082,-2.14453 0.0706,-0.29355 0.003,-0.63229 -0.38301,-0.54345 -5.08172,-0.73253 -10.15685,-1.56192 -15.2498,-2.18898 z"
       inkscape:transform-center-y="-0.71064705"
       inkscape:transform-center-x="35.675137"
       style="opacity:1;fill:#6c5d53;fill-opacity:1;stroke:none;stroke-width:1.37695;stroke-linecap:round;stroke-linejoin:round;stroke-opacity:1"
       id="rect2458" />
    <path
       d="m 396.00195,344.76953 c -0.24479,0.77066 0.5234,1.32036 1.22712,1.23412 4.26108,0.61248 8.52592,1.3033 12.80413,1.83424 0.55242,-0.16226 0.87365,-0.75995 0.51172,-1.26367 -0.5765,-0.61385 -1.53945,-0.37846 -2.28541,-0.60612 -3.88342,-0.58096 -7.76664,-1.16348 -11.6599,-1.67513 -0.19922,0.15885 -0.39844,0.31771 -0.59766,0.47656 z"
       inkscape:transform-center-y="-0.71064221"
       inkscape:transform-center-x="35.675146"
       style="opacity:1;fill:#6c5d53;fill-opacity:1;stroke:none;stroke-width:1.37695;stroke-linecap:round;stroke-linejoin:round;stroke-opacity:1"
       id="rect2460" />
    <rect
       inkscape:transform-center-y="-0.7106476"
       inkscape:transform-center-x="35.675135"
       transform="rotate(-171.62941)"
       ry="1.1541654"
       y="-370.48334"
       x="-387.87769"
       height="4.826509"
       width="18.006857"
       id="rect2462"
       style="opacity:1;fill:#6c5d53;fill-opacity:1;stroke:none;stroke-width:1.37695;stroke-linecap:round;stroke-linejoin:round;stroke-opacity:1" />
    <path
       d="m 203.8418,356.1582 c -0.24988,0.71131 0.38025,1.37167 1.0999,1.28166 4.29944,0.58059 8.59894,1.27646 12.90596,1.8492 0.58088,-0.15251 0.89193,-0.79952 0.51562,-1.30859 -0.58541,-0.59266 -1.53013,-0.35235 -2.27053,-0.5833 -3.88121,-0.58182 -7.76479,-1.14708 -11.64939,-1.70576 -0.20052,0.1556 -0.40104,0.31119 -0.60156,0.46679 z"
       inkscape:transform-center-y="-0.71065434"
       inkscape:transform-center-x="35.675136"
       style="opacity:1;fill:#6c5d53;fill-opacity:1;stroke:none;stroke-width:1.37695;stroke-linecap:round;stroke-linejoin:round;stroke-opacity:1"
       id="rect2464" />
    <rect
       inkscape:transform-center-y="-0.71066095"
       inkscape:transform-center-x="35.675136"
       transform="rotate(-171.62941)"
       ry="1.1541654"
       y="-248.24062"
       x="-216.06728"
       height="4.826509"
       width="18.006857"
       id="rect2466"
       style="opacity:1;fill:#6c5d53;fill-opacity:1;stroke:none;stroke-width:1.37695;stroke-linecap:round;stroke-linejoin:round;stroke-opacity:1" />
    <path
       d="m 214.22852,246.54688 c -0.0894,0.5305 -0.0931,1.09453 -0.23633,1.60351 4.89586,0.72311 9.78836,1.46953 14.6914,2.14258 0.0607,-0.51431 0.20913,-1.18174 0.17774,-1.60938 -4.87278,-0.71736 -9.76387,-1.46808 -14.63281,-2.13671 z"
       inkscape:transform-center-y="-0.7106552"
       inkscape:transform-center-x="35.675142"
       style="opacity:1;fill:#6c5d53;fill-opacity:1;stroke:none;stroke-width:1.37695;stroke-linecap:round;stroke-linejoin:round;stroke-opacity:1"
       id="rect2443" />
  </g>
</svg>
