<?xml version="1.0" encoding="UTF-8" standalone="no"?>
<svg
   xmlns:dc="http://purl.org/dc/elements/1.1/"
   xmlns:cc="http://creativecommons.org/ns#"
   xmlns:rdf="http://www.w3.org/1999/02/22-rdf-syntax-ns#"
   xmlns:svg="http://www.w3.org/2000/svg"
   xmlns="http://www.w3.org/2000/svg"
   xmlns:sodipodi="http://sodipodi.sourceforge.net/DTD/sodipodi-0.dtd"
   xmlns:inkscape="http://www.inkscape.org/namespaces/inkscape"
   width="600mm"
   height="600mm"
   viewBox="0 0 600 600"
   version="1.1"
   id="svg8"
   inkscape:version="1.0 (4035a4fb49, 2020-05-01)"
   sodipodi:docname="battery.svg">
  <defs
     id="defs2" />
  <sodipodi:namedview
     id="base"
     pagecolor="#ffffff"
     bordercolor="#666666"
     borderopacity="1.0"
     inkscape:pageopacity="0.0"
     inkscape:pageshadow="2"
     inkscape:zoom="0.35355339"
     inkscape:cx="1247.2916"
     inkscape:cy="1230.5603"
     inkscape:document-units="mm"
     inkscape:current-layer="g905"
     inkscape:document-rotation="0"
     showgrid="false"
     inkscape:object-paths="false"
     inkscape:window-width="1920"
     inkscape:window-height="1001"
     inkscape:window-x="-9"
     inkscape:window-y="-9"
     inkscape:window-maximized="1" />
  <metadata
     id="metadata5">
    <rdf:RDF>
      <cc:Work
         rdf:about="">
        <dc:format>image/svg+xml</dc:format>
        <dc:type
           rdf:resource="http://purl.org/dc/dcmitype/StillImage" />
        <dc:title />
      </cc:Work>
    </rdf:RDF>
  </metadata>
  <g
     inkscape:label="Layer 1"
     inkscape:groupmode="layer"
     id="layer1">
    <g
       transform="matrix(1.6303788,0,0,1.6303788,-394.40645,-39.936981)"
       id="g905">
      <g
         id="g1447">
        <path
           id="path938"
           d="m 426.23652,100.27708 c -49.40837,0.0132 -89.70512,6.86112 -90.72523,15.41766 0,0 0,0 0,0 v 0.003 c -0.0127,0.10747 -0.019,0.21497 -0.019,0.32246 3e-5,0.1075 0.006,0.21499 0.019,0.32246 0.0614,200.95896 0.0346,201.54117 0.0346,201.54117 v 0 c -0.0361,0.18079 -0.0542,0.36169 -0.0543,0.54261 0,8.69445 40.69032,15.74271 90.88437,15.74271 50.19405,0 90.88437,-7.04826 90.88437,-15.74271 0,0 0,-0.003 0,-0.003 v -0.0228 c 0,0 0,0 0,0 l -0.13694,-201.51791 c 0.0912,-0.28757 0.13689,-0.57551 0.13694,-0.86351 0,-8.69446 -40.69032,-15.74271 -90.88437,-15.74271 0,0 -0.13951,0 -0.13951,0 z"
           style="color:#000000;font-style:normal;font-variant:normal;font-weight:normal;font-stretch:normal;font-size:medium;line-height:normal;font-family:sans-serif;font-variant-ligatures:normal;font-variant-position:normal;font-variant-caps:normal;font-variant-numeric:normal;font-variant-alternates:normal;font-variant-east-asian:normal;font-feature-settings:normal;font-variation-settings:normal;text-indent:0;text-align:start;text-decoration:none;text-decoration-line:none;text-decoration-style:solid;text-decoration-color:#000000;letter-spacing:normal;word-spacing:normal;text-transform:none;writing-mode:lr-tb;direction:ltr;text-orientation:mixed;dominant-baseline:auto;baseline-shift:baseline;text-anchor:start;white-space:normal;shape-padding:0;shape-margin:0;inline-size:0;clip-rule:nonzero;display:inline;overflow:visible;visibility:visible;isolation:auto;mix-blend-mode:normal;color-interpolation:sRGB;color-interpolation-filters:linearRGB;solid-color:#000000;solid-opacity:1;vector-effect:none;fill:#000000;fill-opacity:1;fill-rule:nonzero;stroke:none;stroke-width:13.2292;stroke-linecap:round;stroke-linejoin:round;stroke-miterlimit:4;stroke-dasharray:none;stroke-dashoffset:0;stroke-opacity:1;paint-order:normal;color-rendering:auto;image-rendering:auto;shape-rendering:auto;text-rendering:auto;enable-background:accumulate;stop-color:#000000" />
        <path
           id="path940"
           style="color:#000000;font-style:normal;font-variant:normal;font-weight:normal;font-stretch:normal;font-size:medium;line-height:normal;font-family:sans-serif;font-variant-ligatures:normal;font-variant-position:normal;font-variant-caps:normal;font-variant-numeric:normal;font-variant-alternates:normal;font-variant-east-asian:normal;font-feature-settings:normal;font-variation-settings:normal;text-indent:0;text-align:start;text-decoration:none;text-decoration-line:none;text-decoration-style:solid;text-decoration-color:#000000;letter-spacing:normal;word-spacing:normal;text-transform:none;writing-mode:lr-tb;direction:ltr;text-orientation:mixed;dominant-baseline:auto;baseline-shift:baseline;text-anchor:start;white-space:normal;shape-padding:0;shape-margin:0;inline-size:0;clip-rule:nonzero;display:inline;overflow:visible;visibility:visible;isolation:auto;mix-blend-mode:normal;color-interpolation:sRGB;color-interpolation-filters:linearRGB;solid-color:#000000;solid-opacity:1;vector-effect:none;fill:#000000;fill-opacity:1;fill-rule:nonzero;stroke:none;stroke-width:13.2292;stroke-linecap:round;stroke-linejoin:round;stroke-miterlimit:4;stroke-dasharray:none;stroke-dashoffset:0;stroke-opacity:1;paint-order:normal;color-rendering:auto;image-rendering:auto;shape-rendering:auto;text-rendering:auto;enable-background:accumulate;stop-color:#000000"
           d="m 425.93574,72.851882 c -23.39657,0 -35.19961,1.520333 -35.59987,3.415813 v 5.29e-4 c -0.005,0.02381 -0.007,0.0475 -0.007,0.07131 0,0.02381 0.003,0.0475 0.007,0.07131 0.006,10.564016 0.005,12.361474 0.008,18.517733 -10.69332,0.787995 -20.40786,1.919501 -28.72332,3.332612 -8.45923,1.437545 -15.44614,3.127291 -20.8716,5.260661 -2.71272,1.06668 -5.04944,2.21504 -7.12928,3.82974 -1.90786,1.4812 -3.87625,3.62344 -4.51908,6.71328 -0.0707,0.27862 -0.12319,0.56154 -0.15711,0.84698 v 0.007 c -0.0305,0.25743 -0.0459,0.51644 -0.046,0.77567 v 0.003 c -0.004,0.1075 -0.019,0.21379 -0.019,0.32143 v 0.002 c 3e-5,0.10832 0.0154,0.2153 0.019,0.32349 0.0614,200.95837 0.0413,201.23576 0.0413,201.23576 -0.005,0.1002 -0.007,0.20048 -0.007,0.30078 -0.0108,0.18246 -0.0537,0.35891 -0.0537,0.54208 v 0.003 c 0,3.66652 2.12979,6.47952 4.18735,8.22122 2.05753,1.74167 4.37205,2.92578 7.0626,4.02764 5.38109,2.20372 12.35289,3.92748 20.85507,5.4002 17.00434,2.94545 39.98729,4.70823 65.39393,4.70823 25.40665,0 48.3896,-1.76278 65.39394,-4.70823 8.50218,-1.47272 15.47398,-3.19648 20.85507,-5.4002 2.69055,-1.10186 5.00507,-2.28597 7.0626,-4.02764 2.05756,-1.7417 4.18735,-4.5547 4.18735,-8.22122 v -0.003 -0.0228 -0.005 l -0.13642,-200.82649 c 0.0852,-0.50776 0.13634,-1.02658 0.13642,-1.54926 v -10e-4 c 0,-3.66651 -2.12979,-6.47951 -4.18735,-8.2212 -2.05753,-1.74169 -4.37205,-2.9258 -7.0626,-4.02766 -5.38109,-2.20372 -12.35289,-3.927467 -20.85507,-5.400188 -8.65568,-1.49906 -18.86582,-2.689643 -30.15009,-3.499527 l -0.0223,-18.339946 c 0.0358,-0.0637 0.0537,-0.127405 0.0537,-0.191204 0,-1.926029 -15.96631,-3.487642 -35.66189,-3.487642 z m 35.70118,35.292418 c 10.55524,0.78327 20.0215,1.90053 27.87738,3.2613 7.94467,1.37615 14.28226,3.04433 18.09916,4.60747 1.40052,0.57355 2.29479,1.08622 2.89801,1.47588 l 0.13539,199.3806 c -0.57465,0.38682 -1.52387,0.94501 -3.0334,1.56321 -3.8169,1.56313 -10.15449,3.23133 -18.09916,4.60748 -15.89151,2.75227 -38.35085,4.51392 -63.13826,4.51392 -24.78741,0 -47.24689,-1.76165 -63.1362,-4.51392 -7.94467,-1.37615 -14.28226,-3.04435 -18.09914,-4.60748 -1.47307,-0.60325 -2.40239,-1.1457 -2.98794,-1.53427 0,-0.0193 0.0321,-3.25948 -0.0274,-199.33719 0.64346,-0.43003 1.76617,-1.05978 3.46437,-1.72754 3.9611,-1.55757 10.32843,-3.18482 18.24696,-4.53048 7.5447,-1.28213 16.53762,-2.33899 26.51207,-3.09852 0.003,9.29961 0,12.85245 0,12.85245 -0.0143,0.04 -0.0217,0.0798 -0.0217,0.11989 0,1.92602 15.96681,3.48764 35.66242,3.48764 19.69558,0 35.66189,-1.56162 35.66189,-3.48764 v -5.3e-4 -0.005 z"
           sodipodi:nodetypes="sccsccssscccscsscccssssssssssccccsssscccssscssccscsssccssccsssccc" />
        <path
           transform="scale(0.26458333)"
           d="m 1743.5059,375.57031 v 73.11914 h -8.4864 c -0.8522,0.32391 -2.2593,0.79294 -4.498,1.31055 -5.6607,1.30874 -15.0595,2.7052 -26.8418,3.85742 -23.5679,2.30434 -56.8759,3.7793 -93.6367,3.7793 -36.7609,0 -70.0702,-1.47496 -93.6348,-3.7793 -11.7823,-1.15222 -21.1811,-2.54868 -26.8418,-3.85742 -2.1846,-0.5051 -3.5633,-0.95985 -4.4316,-1.28516 0,0 0,-0.0254 0,-0.0254 h -9.8496 v -72.8125 A 343.50001,59.499999 0 0 0 1267.998,430.5 a 343.50001,59.499999 0 0 0 343.5,59.5 343.50001,59.499999 0 0 0 343.5,-59.5 343.50001,59.499999 0 0 0 -211.4921,-54.92969 z"
           style="opacity:0.537705;fill:#999999;stroke:none;stroke-width:40.2739"
           id="ellipse885" />
        <path
           id="ellipse909"
           style="opacity:0.537705;fill:#999999;stroke:none;stroke-width:40.2739"
           d="m 1268.0723,743.77467 c 0.2318,759.53003 0.1308,457.67453 0.1308,457.67453 v 0 c -0.1364,0.6833 -0.2048,1.367 -0.2051,2.0508 0,32.8609 153.7902,59.5 343.5,59.5 189.7098,0 343.5,-26.6391 343.5,-59.5 v -0.01 -0.086 0 l -0.5176,-457.58661 c -10.0043,31.54529 -160.5934,56.23629 -342.9824,56.23633 -186.9676,-2e-5 -339.598,-25.9021 -343.4277,-58.28125 z"
           sodipodi:nodetypes="ccccssccccsc"
           transform="scale(0.26458333)" />
        <path
           sodipodi:nodetypes="ccccssccccsc"
           d="m 335.51249,205.00063 c 0.0592,187.33439 0.0334,112.8832 0.0334,112.8832 v 0 c -0.0349,0.16853 -0.0524,0.33716 -0.0525,0.50582 0,8.10498 39.3255,14.67539 87.83595,14.67539 48.51044,0 87.83593,-6.57041 87.83593,-14.67539 v -0.003 -0.0212 0 l -0.13232,-112.86114 c -2.55818,7.78049 -41.06512,13.87041 -87.70358,13.87042 -47.80924,-1e-5 -86.83816,-6.38863 -87.81745,-14.37479 z"
           style="opacity:0.537705;fill:#999999;stroke:none;stroke-width:10.1143"
           id="path3337" />
        <path
           d="m 335.88063,116.68068 c 1.3e-4,0.001 0,0.002 0,0.003 v -0.002 z m 0,0.003 c 0.0549,179.87419 0.0349,119.83573 0.031,108.39287 0.003,-0.008 0.003,-0.0162 0.004,-0.0243 0,0 0.008,22.1318 -0.031,-108.34481 0,-0.008 -0.003,-0.0158 -0.004,-0.0238 z m 0.37724,31.9195 c 1.3e-4,0.001 0,0.002 0,0.003 v -0.002 z m 0,0.003 c 0.0398,130.26049 0.0265,90.30034 0.0222,78.49546 -0.17814,-0.32501 -0.30612,-0.65293 -0.36845,-0.9834 0,-1.15829 0.003,11.65614 0.003,11.65614 -0.005,0.0232 -0.006,0.0465 -0.0103,0.0698 -0.003,-9.4874 0.004,11.70306 -0.0164,-57.29159 0,-0.008 -0.003,-0.0158 -0.004,-0.0238 0.029,95.15831 0.0159,53.75684 0.0164,57.34275 -0.0243,0.14846 -0.0397,0.29692 -0.0398,0.44545 0,0.15491 0.014,0.30919 0.0398,0.46302 0,2.46815 0.0164,55.43501 0.0145,50.14165 0.003,-0.008 0.003,-0.0161 0.004,-0.0243 0,0 -0.0124,-42.28531 -0.0145,-50.09462 0.0609,0.34787 0.19066,0.69271 0.37981,1.03456 0,-3.10305 0.005,18.97348 0.005,17.16174 0.003,-0.008 0.003,-0.0162 0.004,-0.0243 0,0 -0.005,-17.54504 -0.005,-17.12919 2.05676,3.69692 11.50331,7.0185 25.73848,9.52035 v -12.72222 c -14.25205,-2.50507 -23.70299,-5.83216 -25.74263,-9.53482 1.8e-4,-0.77962 0.006,16.03104 -0.0222,-78.47893 0,-0.008 -0.003,-0.0158 -0.004,-0.0238 z m -0.37412,31.9226 v -0.002 -0.001 c 1.3e-4,0.001 0,0.002 0,0.003 z m 0.40566,77.51206 c 0,-1.15829 0.003,11.65614 0.003,11.65614 -0.0361,0.18079 -0.0542,0.36169 -0.0543,0.54261 0,4.2722 9.83951,8.14435 25.78862,10.98071 v -12.72325 c -15.29313,-2.72002 -24.97103,-6.39167 -25.73745,-10.45621 z m -0.37415,31.92262 c 0,-1.15829 0.003,11.65611 0.003,11.65611 -0.0361,0.18079 -0.0542,0.36169 -0.0543,0.54261 0,4.30599 9.99022,8.20621 26.16277,11.04842 V 300.486 c -15.50916,-2.72642 -25.33896,-6.42485 -26.1116,-10.52234 z"
           style="opacity:1;fill:#ffffff;fill-opacity:0.537255;stroke:none;stroke-width:10.6558"
           id="path894" />
        <path
           id="path953"
           style="opacity:1;fill:#1a1a1a;fill-opacity:0.537255;stroke:none;stroke-width:40.2739"
           d="m 1268.0566,433.16992 c 5e-4,0.004 0,0.008 0,0.0117 v -0.008 z m 0,0.0117 c 0.2075,679.83948 0.1319,452.92243 0.1172,409.67383 0.01,-0.0302 0.01,-0.0612 0.016,-0.0918 0,0 0.03,83.64776 -0.1172,-409.49219 0,-0.0302 -0.012,-0.0596 -0.016,-0.0898 z m 1.4258,120.64063 c 5e-4,0.004 0,0.008 0,0.0117 v -0.008 z m 0,0.0117 c 0.1503,492.32315 0.1,341.29265 0.084,296.67579 -0.6733,-1.22841 -1.157,-2.46778 -1.3926,-3.7168 0,-4.37779 0.012,44.05469 0.012,44.05469 -0.018,0.0878 -0.024,0.17583 -0.039,0.26367 -0.01,-35.85788 0.015,44.23205 -0.062,-216.53516 0,-0.0302 -0.012,-0.0596 -0.016,-0.0898 0.1097,359.65346 0.06,203.17546 0.062,216.72851 -0.092,0.5611 -0.1501,1.12221 -0.1504,1.6836 0,0.58547 0.053,1.1686 0.1504,1.75 0,9.32843 0.062,209.51815 0.055,189.51175 0.01,-0.03 0.01,-0.061 0.016,-0.092 0,0 -0.047,-159.81851 -0.055,-189.33401 0.2301,1.31481 0.7206,2.61812 1.4355,3.91015 0,-11.72804 0.02,71.71079 0.018,64.86328 0.01,-0.0302 0.01,-0.0612 0.016,-0.0918 0,0 -0.018,-66.31198 -0.017,-64.74024 7.7736,13.97259 43.4771,26.52661 97.2793,35.98242 v -48.08398 c -53.866,-9.46799 -89.5861,-22.04281 -97.295,-36.03711 7e-4,-2.94659 0.023,60.58975 -0.084,-296.61328 0,-0.0302 -0.012,-0.0596 -0.016,-0.0898 z m -1.414,120.65235 v -0.008 -0.004 c 5e-4,0.004 0,0.008 0,0.0117 z m 1.5332,292.95898 c 0,-4.37779 0.012,44.05472 0.012,44.05472 -0.1365,0.6833 -0.2047,1.367 -0.2051,2.0508 0,16.1469 37.1887,30.7818 97.4688,41.5019 v -48.0879 c -57.8008,-10.28036 -94.3787,-24.15748 -97.2754,-39.51952 z m -1.4141,120.65242 c 0,-4.3778 0.012,44.0546 0.012,44.0546 -0.1364,0.6833 -0.2047,1.367 -0.2051,2.0508 0,16.2746 37.7583,31.0156 98.8829,41.7578 v -48.0937 c -58.6173,-10.3046 -95.7693,-24.2829 -98.6895,-39.7695 z"
           transform="scale(0.26458333)" />
        <ellipse
           ry="8.1981449"
           rx="35.693031"
           cy="117.52543"
           cx="425.66766"
           id="path890"
           style="opacity:1;fill:#000000;fill-opacity:0.537255;stroke-width:12.1454;stroke-linecap:round;stroke-linejoin:round" />
      </g>
    </g>
  </g>
</svg>
