<?xml version="1.0" encoding="UTF-8" standalone="no"?>
<svg
   xmlns:dc="http://purl.org/dc/elements/1.1/"
   xmlns:cc="http://creativecommons.org/ns#"
   xmlns:rdf="http://www.w3.org/1999/02/22-rdf-syntax-ns#"
   xmlns:svg="http://www.w3.org/2000/svg"
   xmlns="http://www.w3.org/2000/svg"
   xmlns:sodipodi="http://sodipodi.sourceforge.net/DTD/sodipodi-0.dtd"
   xmlns:inkscape="http://www.inkscape.org/namespaces/inkscape"
   sodipodi:docname="coin.svg"
   inkscape:version="1.0 (4035a4fb49, 2020-05-01)"
   id="svg8"
   version="1.1"
   viewBox="0 0 600 600"
   height="600mm"
   width="600mm">
  <defs
     id="defs2" />
  <sodipodi:namedview
     inkscape:window-maximized="1"
     inkscape:window-y="-9"
     inkscape:window-x="-9"
     inkscape:window-height="1001"
     inkscape:window-width="1920"
     showgrid="false"
     inkscape:document-rotation="0"
     inkscape:current-layer="layer1"
     inkscape:document-units="mm"
     inkscape:cy="902.85717"
     inkscape:cx="249.80212"
     inkscape:zoom="0.35"
     inkscape:pageshadow="2"
     inkscape:pageopacity="0.0"
     borderopacity="1.0"
     bordercolor="#666666"
     pagecolor="#ffffff"
     id="base" />
  <metadata
     id="metadata5">
    <rdf:RDF>
      <cc:Work
         rdf:about="">
        <dc:format>image/svg+xml</dc:format>
        <dc:type
           rdf:resource="http://purl.org/dc/dcmitype/StillImage" />
        <dc:title />
      </cc:Work>
    </rdf:RDF>
  </metadata>
  <g
     id="layer1"
     inkscape:groupmode="layer"
     inkscape:label="Layer 1">
    <g
       id="g882"
       style="opacity:1">
      <path
         style="color:#000000;font-style:normal;font-variant:normal;font-weight:normal;font-stretch:normal;font-size:medium;line-height:normal;font-family:sans-serif;font-variant-ligatures:normal;font-variant-position:normal;font-variant-caps:normal;font-variant-numeric:normal;font-variant-alternates:normal;font-variant-east-asian:normal;font-feature-settings:normal;font-variation-settings:normal;text-indent:0;text-align:start;text-decoration:none;text-decoration-line:none;text-decoration-style:solid;text-decoration-color:#000000;letter-spacing:normal;word-spacing:normal;text-transform:none;writing-mode:lr-tb;direction:ltr;text-orientation:mixed;dominant-baseline:auto;baseline-shift:baseline;text-anchor:start;white-space:normal;shape-padding:0;shape-margin:0;inline-size:0;clip-rule:nonzero;display:inline;overflow:visible;visibility:visible;isolation:auto;mix-blend-mode:normal;color-interpolation:sRGB;color-interpolation-filters:linearRGB;solid-color:#000000;solid-opacity:1;vector-effect:none;fill:#ffcc00;fill-opacity:1;fill-rule:nonzero;stroke:none;stroke-width:8.46667;stroke-linecap:round;stroke-linejoin:round;stroke-miterlimit:4;stroke-dasharray:none;stroke-dashoffset:0;stroke-opacity:1;color-rendering:auto;image-rendering:auto;shape-rendering:auto;text-rendering:auto;enable-background:accumulate;stop-color:#000000;stop-opacity:1"
         d="m 484.56546,283.86014 c 0,105.00149 -85.12052,190.12201 -190.12201,190.12201 -105.00149,0 -190.12201,-85.12052 -190.12201,-190.12201 0,-105.00149 85.12052,-190.122011 190.12201,-190.122011 105.00149,0 190.12201,85.120521 190.12201,190.122011"
         id="path884" />
    </g>
    <path
       id="path937"
       transform="scale(0.26458333)"
       d="m 1620.2715,1245.0781 a 547.14289,472.85715 0 0 1 -510.8438,303.4922 547.14289,472.85715 0 0 1 -482.27926,-249.5391 c 7.96088,17.1266 16.82819,33.8408 26.60937,50.0254 38.97619,64.4705 91.41326,120.4013 153.08203,163.5879 84.49603,59.3804 187.2158,92.8789 290.16216,95.8223 67.0807,1.9533 134.4625,-8.9317 197.5898,-31.5918 48.4673,-17.3736 94.4602,-42.0235 135.7891,-72.5352 60.2698,-44.4532 111.4802,-101.6887 148.3398,-166.6562 16.7201,-29.4685 30.6472,-60.5256 41.5508,-92.6055 z"
       style="opacity:1;fill:#e4e49c;fill-opacity:1;stroke:none;stroke-width:32;stroke-linecap:round;stroke-linejoin:round;stroke-opacity:1" />
    <rect
       style="opacity:1;fill:#ffe168;fill-opacity:1;stroke-width:8.34163;stroke-linecap:round;stroke-linejoin:round"
       id="rect877"
       width="371.7626"
       height="89.517632"
       x="-31.177084"
       y="331.13171"
       ry="5.3553934"
       transform="matrix(0.92169551,-0.38791414,0.40800492,0.91297973,0,0)"
       rx="18.505363" />
    <path
       id="circle835"
       transform="scale(0.26458333)"
       d="m 1108.3027,536.92383 c -2.8418,0.0158 -5.6852,0.0541 -8.5273,0.11523 -105.44395,3.09608 -210.53379,37.15898 -296.80665,98.71875 -56.81639,40.37809 -105.72211,91.97145 -142.91992,150.58399 -16.73181,26.30544 -31.03615,54.08649 -42.83789,82.88281 a 547.14289,472.85715 0 0 1 492.21676,-266.36719 547.14289,472.85715 0 0 1 518.2071,321.11914 c -3.7219,-12.92177 -7.9324,-25.70774 -12.6485,-38.31445 -29.7014,-79.57565 -78.7511,-151.96426 -141.6699,-209.26953 -66.9567,-61.03253 -149.9359,-104.86005 -238.3594,-125.28125 -41.4681,-9.57278 -84.0273,-14.42515 -126.6543,-14.1875 z"
       style="opacity:1;fill:#cba300;fill-opacity:1;stroke:none;stroke-width:32;stroke-linecap:round;stroke-linejoin:round;stroke-opacity:1" />
    <g
       transform="matrix(1.3458566,0,0,1.3458566,-111.87814,-102.48136)"
       id="g873">
      <text
         transform="scale(1.0873124,0.91969888)"
         id="text851"
         y="413.21503"
         x="228.43582"
         style="font-style:normal;font-variant:normal;font-weight:normal;font-stretch:normal;font-size:275.85px;line-height:1.2;font-family:Coolvetica;-inkscape-font-specification:'Coolvetica, Normal';font-variant-ligatures:normal;font-variant-caps:normal;font-variant-numeric:normal;font-variant-east-asian:normal;fill:#d4aa00;stroke-width:0.689625"
         xml:space="preserve"><tspan
           style="font-style:normal;font-variant:normal;font-weight:normal;font-stretch:normal;font-size:275.85px;font-family:Coolvetica;-inkscape-font-specification:'Coolvetica, Normal';font-variant-ligatures:normal;font-variant-caps:normal;font-variant-numeric:normal;font-variant-east-asian:normal;fill:#d4aa00;stroke-width:0.689625"
           y="413.21503"
           x="228.43582"
           id="tspan849"
           sodipodi:role="line">¢</tspan></text>
      <text
         transform="scale(1.0873124,0.91969888)"
         id="text859"
         y="397.68018"
         x="227.74057"
         style="font-style:normal;font-variant:normal;font-weight:normal;font-stretch:normal;font-size:275.85px;line-height:1.2;font-family:Coolvetica;-inkscape-font-specification:'Coolvetica, Normal';font-variant-ligatures:normal;font-variant-caps:normal;font-variant-numeric:normal;font-variant-east-asian:normal;fill:#ffe6d5;stroke-width:0.689625"
         xml:space="preserve"><tspan
           style="font-style:normal;font-variant:normal;font-weight:normal;font-stretch:normal;font-size:275.85px;font-family:Coolvetica;-inkscape-font-specification:'Coolvetica, Normal';font-variant-ligatures:normal;font-variant-caps:normal;font-variant-numeric:normal;font-variant-east-asian:normal;fill:#ffe6d5;stroke-width:0.689625"
           y="397.68018"
           x="227.74057"
           id="tspan857"
           sodipodi:role="line">¢</tspan></text>
      <text
         xml:space="preserve"
         style="font-style:normal;font-variant:normal;font-weight:normal;font-stretch:normal;font-size:275.85px;line-height:1.2;font-family:Coolvetica;-inkscape-font-specification:'Coolvetica, Normal';font-variant-ligatures:normal;font-variant-caps:normal;font-variant-numeric:normal;font-variant-east-asian:normal;opacity:0.327869;fill:#aa8700;fill-opacity:1;stroke-width:0.689625"
         x="228.43582"
         y="404.00916"
         id="text855"
         transform="scale(1.0873124,0.91969888)"><tspan
           sodipodi:role="line"
           id="tspan853"
           x="228.43582"
           y="404.00916"
           style="font-style:normal;font-variant:normal;font-weight:normal;font-stretch:normal;font-size:275.85px;font-family:Coolvetica;-inkscape-font-specification:'Coolvetica, Normal';font-variant-ligatures:normal;font-variant-caps:normal;font-variant-numeric:normal;font-variant-east-asian:normal;fill:#aa8700;fill-opacity:1;stroke-width:0.689625">¢</tspan></text>
    </g>
  </g>
  <path
     id="path886"
     d="m 297.84519,92.150483 c -107.28935,0 -194.35547,87.066117 -194.35547,194.355477 0,107.28934 87.06612,194.35546 194.35547,194.35546 107.23172,0 194.2581,-86.9736 194.35155,-194.18359 a 4.2333349,4.2333349 0 0 0 0.004,-0.17187 c 0,-0.0576 -0.004,-0.11425 -0.004,-0.17188 a 4.2333349,4.2333349 0 0 0 0,-0.0156 C 492.09477,179.1157 405.07167,92.150483 297.84519,92.150483 Z m 0,8.466797 c 102.71362,0 185.88867,83.17505 185.88867,185.88868 0,102.71361 -83.17505,185.88866 -185.88867,185.88866 -102.71361,0 -185.88867,-83.17505 -185.88867,-185.88866 0,-102.71363 83.17506,-185.88868 185.88867,-185.88868 z"
     style="color:#000000;font-style:normal;font-variant:normal;font-weight:normal;font-stretch:normal;font-size:medium;line-height:normal;font-family:sans-serif;font-variant-ligatures:normal;font-variant-position:normal;font-variant-caps:normal;font-variant-numeric:normal;font-variant-alternates:normal;font-variant-east-asian:normal;font-feature-settings:normal;font-variation-settings:normal;text-indent:0;text-align:start;text-decoration:none;text-decoration-line:none;text-decoration-style:solid;text-decoration-color:#000000;letter-spacing:normal;word-spacing:normal;text-transform:none;writing-mode:lr-tb;direction:ltr;text-orientation:mixed;dominant-baseline:auto;baseline-shift:baseline;text-anchor:start;white-space:normal;shape-padding:0;shape-margin:0;inline-size:0;clip-rule:nonzero;display:inline;overflow:visible;visibility:visible;opacity:1;isolation:auto;mix-blend-mode:normal;color-interpolation:sRGB;color-interpolation-filters:linearRGB;solid-color:#000000;solid-opacity:1;vector-effect:none;fill:#a48300;fill-opacity:1;fill-rule:nonzero;stroke:none;stroke-width:8.46667;stroke-linecap:round;stroke-linejoin:round;stroke-miterlimit:4;stroke-dasharray:none;stroke-dashoffset:0;stroke-opacity:1;color-rendering:auto;image-rendering:auto;shape-rendering:auto;text-rendering:auto;enable-background:accumulate;stop-color:#000000;stop-opacity:1" />
</svg>
