<?xml version="1.0" encoding="UTF-8" standalone="no"?>
<svg
   xmlns:dc="http://purl.org/dc/elements/1.1/"
   xmlns:cc="http://creativecommons.org/ns#"
   xmlns:rdf="http://www.w3.org/1999/02/22-rdf-syntax-ns#"
   xmlns:svg="http://www.w3.org/2000/svg"
   xmlns="http://www.w3.org/2000/svg"
   xmlns:sodipodi="http://sodipodi.sourceforge.net/DTD/sodipodi-0.dtd"
   xmlns:inkscape="http://www.inkscape.org/namespaces/inkscape"
   inkscape:version="1.0 (4035a4fb49, 2020-05-01)"
   sodipodi:docname="doughnut.svg"
   id="svg8"
   version="1.1"
   viewBox="0 0 599.99999 599.99999"
   height="600mm"
   width="600mm">
  <defs
     id="defs2" />
  <sodipodi:namedview
     inkscape:window-maximized="1"
     inkscape:window-y="-9"
     inkscape:window-x="-9"
     inkscape:window-height="1001"
     inkscape:window-width="1920"
     inkscape:snap-smooth-nodes="true"
     fit-margin-bottom="0"
     fit-margin-right="0"
     fit-margin-left="0"
     fit-margin-top="0"
     showgrid="false"
     inkscape:document-rotation="0"
     inkscape:current-layer="g1138"
     inkscape:document-units="mm"
     inkscape:cy="1014.3483"
     inkscape:cx="1574.0133"
     inkscape:zoom="0.35"
     inkscape:pageshadow="2"
     inkscape:pageopacity="0.0"
     borderopacity="1.0"
     bordercolor="#666666"
     pagecolor="#ffffff"
     id="base" />
  <metadata
     id="metadata5">
    <rdf:RDF>
      <cc:Work
         rdf:about="">
        <dc:format>image/svg+xml</dc:format>
        <dc:type
           rdf:resource="http://purl.org/dc/dcmitype/StillImage" />
        <dc:title />
      </cc:Work>
    </rdf:RDF>
  </metadata>
  <g
     transform="translate(-22.81892,-51.859533)"
     id="layer1"
     inkscape:groupmode="layer"
     inkscape:label="Layer 1">
    <g
       transform="matrix(0.18581898,0,0,0.18581898,-323.54745,285.37497)"
       id="g970" />
    <g
       transform="translate(-5.9848203,-51.893373)"
       id="g1138">
      <g
         transform="matrix(0.18581898,0,0,0.18581898,-323.54745,285.37497)"
         id="g1084" />
      <g
         transform="translate(7.5595238,52.160714)"
         id="g2359">
        <path
           d="m 323.91178,177.59989 a 175.57699,175.57699 0 0 0 -175.47916,175.57715 175.57699,175.57699 0 0 0 175.57716,175.57681 175.57699,175.57699 0 0 0 175.57679,-175.57681 175.57699,175.57699 0 0 0 -12.35479,-64.69839 19.755163,21.888723 51.237392 0 1 -24.5408,-4.74854 19.755163,21.888723 51.237392 0 1 -3.85429,-14.15454 36.31464,40.236623 51.237392 0 1 -40.54628,-10.55177 36.31464,40.236623 51.237392 0 1 -2.1979,-40.74117 19.755163,21.888723 51.237392 0 1 -14.55557,-6.90942 19.755163,21.888723 51.237392 0 1 -3.22352,-17.27572 175.57699,175.57699 0 0 0 -74.30364,-16.4976 175.57699,175.57699 0 0 0 -0.098,0 z m 0.098,114.12515 a 61.451946,61.451946 0 0 1 61.45164,61.452 61.451946,61.451946 0 0 1 -61.45164,61.45164 61.451946,61.451946 0 0 1 -61.45201,-61.45164 61.451946,61.451946 0 0 1 61.45201,-61.452 z"
           style="fill:#ffcadb;fill-opacity:1;stroke-width:1.03892"
           id="path1086" />
        <path
           d="m 323.8941,165.03271 c -0.59243,7.4e-4 -1.18369,0.004 -1.77362,0.0105 h -0.0102 c -29.5675,0.35583 -58.97128,7.89928 -85.03577,21.89542 -25.49327,13.65012 -47.67947,33.32952 -64.22114,57.06748 -0.002,0.002 -0.003,0.005 -0.005,0.007 v 7.4e-4 c -16.38587,23.44966 -27.22118,50.69799 -31.33482,79.02352 -1.7e-4,0.002 0,0.002 0,0.004 -0.39421,2.6894 -0.72532,5.38275 -0.99878,8.07733 -0.0226,0.22261 -0.0345,0.44619 -0.0356,0.66995 -0.0339,7.036 0.55313,15.61069 3.92361,23.39723 3.37048,7.78652 11.12699,15.01516 21.788,14.99 7.35248,-0.0173 11.81031,-5.03443 15.61242,-9.97833 3.80214,-4.94386 7.18913,-10.90126 10.55829,-16.67109 3.36918,-5.76984 6.72197,-11.34568 9.73155,-15.05243 2.9322,-3.61143 5.15328,-4.5938 5.46533,-4.64293 0.0955,0.0398 0.50476,0.19327 1.28258,0.83836 1.13136,0.93831 2.71558,2.72857 4.36203,5.07446 3.2929,4.69178 6.89237,11.50199 10.41966,18.25961 3.52729,6.75762 6.93092,13.42481 10.7314,18.59206 1.90025,2.58363 3.8245,4.89414 6.81143,6.63686 2.98694,1.74274 8.17626,2.17916 11.66087,-0.0403 12.68369,-8.07837 21.6209,-21.939 22.00975,-40.08608 0.55307,-1.64443 1.17031,-3.26239 1.88505,-4.82877 0.002,-0.005 0.005,-0.01 0.007,-0.0145 2.96805,-6.54512 7.33095,-12.52079 12.69194,-17.33306 v -3.8e-4 c 2.73698,-2.45631 5.71641,-4.60982 8.92621,-6.45503 7.85977,-4.49457 16.93307,-6.93344 25.97619,-6.92103 h 0.008 c 11.01275,0.003 22.0918,3.60162 30.92506,10.14565 0.006,0.004 0.0117,0.008 0.0175,0.0127 4.10822,3.02379 7.7853,6.65271 10.80181,10.6766 0.004,0.004 0.007,0.008 0.0102,0.0127 3.35349,4.45225 5.94985,9.46626 7.72747,14.73486 0.17556,6.55822 1.14182,14.03513 4.5678,20.79394 3.63897,7.179 11.39338,13.45309 21.52705,13.33506 7.55191,-0.088 11.72167,-5.15165 15.85414,-10.20734 4.13248,-5.0557 8.07859,-11.23998 12.01799,-17.25541 3.93938,-6.01542 7.87632,-11.8559 11.34947,-15.79933 3.47316,-3.94343 6.30918,-5.06262 6.29644,-5.06283 -0.17157,-0.003 -0.90212,-0.78003 0,0 0.90209,0.78003 3.14561,3.0324 4.50029,5.18551 2.70937,4.30617 5.59958,10.75199 8.45296,17.36173 2.85338,6.60975 5.67261,13.37481 8.94471,18.97095 1.63607,2.79808 3.35969,5.33412 5.65877,7.50608 2.2991,2.17195 5.60032,4.18 9.60924,4.09964 10.72194,-0.21496 18.86664,-5.13015 22.33057,-12.10184 3.46392,-6.97172 3.2565,-14.32239 3.26672,-21.10169 0,-0.24012 -0.0119,-0.4801 -0.0363,-0.71897 -0.0571,-0.55886 -0.22853,-3.76958 -0.37635,-6.74139 -0.14773,-2.97015 -0.22351,-5.54147 -0.54075,-7.74088 -2.1763,-15.23617 -6.26983,-30.18363 -12.13776,-44.40383 a 19.755163,25.602697 51.237392 0 1 -7.86573,9.22344 19.755163,25.602697 51.237392 0 1 -32.33215,0.62569 19.755163,25.602697 51.237392 0 1 -3.07943,-14.77696 36.31464,47.063783 51.237392 0 1 -43.8551,-7.89513 36.31464,47.063783 51.237392 0 1 0.95015,-43.26861 19.755163,25.602697 51.237392 0 1 -15.48504,-6.1636 19.755163,25.602697 51.237392 0 1 7.55034,-31.3976 19.755163,25.602697 51.237392 0 1 0.045,-0.0363 19.755163,25.602697 51.237392 0 1 3.27216,-2.31584 c -16.97988,-8.151 -35.19456,-13.71725 -53.869,-16.35897 l -0.004,-3.7e-4 c -8.7899,-1.256 -17.66358,-1.86869 -26.53038,-1.85819 z"
           style="color:#000000;font-style:normal;font-variant:normal;font-weight:normal;font-stretch:normal;font-size:medium;line-height:normal;font-family:sans-serif;font-variant-ligatures:normal;font-variant-position:normal;font-variant-caps:normal;font-variant-numeric:normal;font-variant-alternates:normal;font-variant-east-asian:normal;font-feature-settings:normal;font-variation-settings:normal;text-indent:0;text-align:start;text-decoration:none;text-decoration-line:none;text-decoration-style:solid;text-decoration-color:#000000;letter-spacing:normal;word-spacing:normal;text-transform:none;writing-mode:lr-tb;direction:ltr;text-orientation:mixed;dominant-baseline:auto;baseline-shift:baseline;text-anchor:start;white-space:normal;shape-padding:0;shape-margin:0;inline-size:0;clip-rule:nonzero;display:inline;overflow:visible;visibility:visible;isolation:auto;mix-blend-mode:normal;color-interpolation:sRGB;color-interpolation-filters:linearRGB;solid-color:#000000;solid-opacity:1;vector-effect:none;fill:#483737;fill-opacity:1;fill-rule:nonzero;stroke:#34201e;stroke-width:10.6558;stroke-linecap:round;stroke-linejoin:round;stroke-miterlimit:4;stroke-dasharray:none;stroke-dashoffset:0;stroke-opacity:1;paint-order:stroke fill markers;color-rendering:auto;image-rendering:auto;shape-rendering:auto;text-rendering:auto;enable-background:accumulate;stop-color:#000000"
           id="path1088" />
        <path
           d="m 444.22929,331.084 c -3.33852,3.42022 -5.89793,7.48336 -8.6359,11.3722 -2.08309,3.08547 -4.11526,6.2047 -6.15784,9.31707 0.56372,16.18876 -2.65564,32.50948 -9.47623,47.20969 -9.13932,19.91363 -24.52651,36.96986 -43.60376,47.79669 -22.24821,12.66122 -49.19677,16.83814 -74.22868,11.42239 -24.30517,-5.22383 -46.5417,-19.42224 -61.58058,-39.2078 -8.9757,-11.75916 -15.27086,-25.50022 -18.63496,-39.88848 -1.68987,-7.25251 -2.6276,-14.67964 -2.78685,-22.12553 -3.84121,-7.19676 -7.37214,-14.59298 -12.25061,-21.16937 -2.59132,2.99577 -4.55026,6.46102 -6.67804,9.78458 -2.51269,4.11796 -4.90162,8.31111 -7.38732,12.44374 0.3981,22.66625 6.85665,45.22459 18.51532,64.69859 10.13537,16.96817 24.13473,31.69107 40.71427,42.5263 13.267,8.71376 28.04447,14.99823 43.52694,18.45642 13.86962,3.09435 28.30966,3.91006 42.43795,2.43458 8.4285,-0.87443 16.77223,-2.56961 24.85869,-5.04191 13.71109,-4.20337 26.72154,-10.67476 38.32379,-19.05285 16.21983,-11.72689 29.75115,-27.09201 39.14202,-44.76676 6.66399,-12.52892 11.32175,-26.1412 13.67959,-40.15112 1.00537,-5.94913 1.59488,-11.99846 1.74953,-18.03271 0.007,-1.254 0.13921,-2.52394 -0.0435,-3.76867 -0.33995,-1.13755 -0.92657,-2.18222 -1.35946,-3.28589 -3.13184,-7.10726 -5.96231,-14.39949 -10.09419,-21.00957 z"
           style="opacity:0.416393;fill:#fffdfe;fill-opacity:1;stroke-width:1.03892"
           id="path1090" />
        <path
           d="m 324.49756,221.17117 c -0.75454,-0.003 -1.50913,7.5e-4 -2.26395,0.0105 -19.84788,0.43288 -39.61898,5.10015 -57.43258,13.9288 -16.21802,8.03429 -30.7945,19.40963 -42.57396,33.18502 -9.2956,10.84258 -16.79059,23.21514 -22.16654,36.46879 -3.8961,9.57643 -6.68611,19.56318 -8.30016,29.76733 2.54507,-3.89361 5.30033,-7.74276 8.88774,-10.75137 1.99711,-1.60624 4.45982,-2.94657 7.09669,-2.79563 2.52946,0.17999 4.77864,1.65743 6.43108,3.50951 3.78371,3.68797 6.49658,8.27667 9.11311,12.82078 4.76619,-26.48733 20.27651,-50.99528 42.54928,-66.20019 17.45438,-12.02003 38.63146,-18.56011 59.82645,-18.42983 19.13248,0.25692 38.06656,6.20178 54.17023,16.47837 12.80943,8.19508 23.82279,19.2439 31.72969,32.25048 6.34836,10.36801 10.83745,21.86236 13.23886,33.77769 3.52558,-5.20128 7.14063,-10.4237 11.73601,-14.7512 1.24748,-1.0617 2.58963,-2.01507 3.74795,-3.17816 2.83779,-2.31139 7.49651,-1.99265 9.86546,0.84889 1.59593,1.45124 3.02029,3.08497 4.29125,4.82586 -3.37269,-13.46602 -8.83441,-26.40739 -16.11725,-38.20578 -1.20574,-1.95577 -2.46398,-3.87901 -3.7719,-5.768 a 36.31464,47.063783 51.237392 0 1 -26.91146,-11.39049 36.31464,47.063783 51.237392 0 1 -6.37229,-22.04786 c -0.1792,-0.12583 -0.35731,-0.25322 -0.53713,-0.37817 -12.95032,-9.00606 -27.42779,-15.68862 -42.69845,-19.63874 -10.9436,-2.83686 -22.22007,-4.29417 -33.53813,-4.33663 z"
           style="opacity:0.406557;fill:#fffdfe;fill-opacity:1;stroke-width:1.03892"
           id="path1092" />
        <rect
           style="fill:#ff00ff;stroke:#ddabd5;stroke-width:1.02589;stroke-opacity:1"
           id="rect1094"
           width="36.88702"
           height="9.3910875"
           x="-102.14735"
           y="348.27676"
           ry="4.6955438"
           transform="matrix(0.73932141,-0.67335269,0.65748266,0.75346968,0,0)" />
        <rect
           style="fill:#ff00ff;stroke:#ddabd5;stroke-width:1.02589;stroke-opacity:1"
           id="rect1096"
           width="36.88702"
           height="9.3910875"
           x="-265.12274"
           y="-210.37"
           ry="4.6955438"
           transform="matrix(-0.98015406,-0.19823726,0.21903036,-0.97571805,0,0)" />
        <rect
           style="fill:#ff00ff;stroke:#ddabd5;stroke-width:1.02589;stroke-opacity:1"
           id="rect1098"
           width="36.88702"
           height="9.3910875"
           x="-424.70325"
           y="14.015003"
           ry="4.6955438"
           transform="matrix(-0.70030776,-0.71384105,0.72856813,-0.68497334,0,0)" />
        <rect
           transform="matrix(0.73932141,-0.67335269,0.65748266,0.75346968,0,0)"
           ry="4.6955438"
           y="316.58478"
           x="44.524048"
           height="9.3910875"
           width="36.88702"
           id="rect1100"
           style="fill:#deaa87;stroke:#73591a;stroke-width:1.02589;stroke-opacity:1" />
        <rect
           transform="matrix(-0.89183488,-0.45236107,0.47121908,-0.8820162,0,0)"
           ry="4.6955438"
           y="-140.43066"
           x="-354.80972"
           height="9.3910875"
           width="36.88702"
           id="rect1102"
           style="fill:#deaa87;stroke:#73591a;stroke-width:1.02589;stroke-opacity:1" />
        <rect
           transform="matrix(0.73932141,-0.67335269,0.65748266,0.75346968,0,0)"
           ry="4.6955438"
           y="490.69174"
           x="75.065437"
           height="9.3910875"
           width="36.88702"
           id="rect1104"
           style="fill:#deaa87;stroke:#73591a;stroke-width:1.02589;stroke-opacity:1" />
        <rect
           transform="matrix(0.73932141,-0.67335269,0.65748266,0.75346968,0,0)"
           ry="4.6955438"
           y="402.93341"
           x="96.992874"
           height="9.3910875"
           width="36.88702"
           id="rect1106"
           style="fill:#deaa87;stroke:#73591a;stroke-width:1.02589;stroke-opacity:1" />
        <rect
           transform="matrix(0.73932141,-0.67335269,0.65748266,0.75346968,0,0)"
           ry="4.6955438"
           y="403.98785"
           x="-38.230724"
           height="9.3910875"
           width="36.88702"
           id="rect1108"
           style="fill:#deaa87;stroke:#73591a;stroke-width:1.02589;stroke-opacity:1" />
        <rect
           style="fill:#deaa87;stroke:#73591a;stroke-width:1.02589;stroke-opacity:1"
           id="rect1110"
           width="36.88702"
           height="9.3910875"
           x="44.524048"
           y="316.58478"
           ry="4.6955438"
           transform="matrix(0.73932141,-0.67335269,0.65748266,0.75346968,0,0)" />
        <rect
           style="fill:#ff00ff;stroke:#ddabd5;stroke-width:1.02589;stroke-opacity:1"
           id="rect1112"
           width="36.88702"
           height="9.3910875"
           x="97.392136"
           y="371.19617"
           ry="4.6955438"
           transform="matrix(0.73932141,-0.67335269,0.65748266,0.75346968,0,0)" />
        <rect
           style="fill:#71c837;stroke:#33961a;stroke-width:1.02589;stroke-opacity:1"
           id="rect1114"
           width="36.88702"
           height="9.3910875"
           x="72.361595"
           y="445.47278"
           ry="4.6955438"
           transform="matrix(0.73932141,-0.67335269,0.65748266,0.75346968,0,0)" />
        <rect
           style="fill:#ff00ff;stroke:#ddabd5;stroke-width:1.02589;stroke-opacity:1"
           id="rect1116"
           width="36.88702"
           height="9.3910875"
           x="-564.05127"
           y="-168.20349"
           ry="4.6955438"
           transform="matrix(-0.9567854,-0.29079496,0.31107032,-0.9503869,0,0)" />
        <rect
           transform="matrix(-0.80575786,-0.59224511,0.60924153,-0.79298472,0,0)"
           ry="4.6955438"
           y="-22.623381"
           x="-393.44363"
           height="9.3910875"
           width="36.88702"
           id="rect1118"
           style="fill:#ff00ff;stroke:#ddabd5;stroke-width:1.02589;stroke-opacity:1" />
      </g>
    </g>
  </g>
</svg>
