<?xml version="1.0" encoding="UTF-8" standalone="no"?>
<svg
   xmlns:dc="http://purl.org/dc/elements/1.1/"
   xmlns:cc="http://creativecommons.org/ns#"
   xmlns:rdf="http://www.w3.org/1999/02/22-rdf-syntax-ns#"
   xmlns:svg="http://www.w3.org/2000/svg"
   xmlns="http://www.w3.org/2000/svg"
   xmlns:sodipodi="http://sodipodi.sourceforge.net/DTD/sodipodi-0.dtd"
   xmlns:inkscape="http://www.inkscape.org/namespaces/inkscape"
   sodipodi:docname="favicon.svg"
   inkscape:version="1.0 (4035a4fb49, 2020-05-01)"
   id="svg915"
   version="1.1"
   viewBox="0 0 600 600"
   height="600mm"
   width="600mm">
  <defs
     id="defs909" />
  <sodipodi:namedview
     inkscape:window-maximized="1"
     inkscape:window-y="-9"
     inkscape:window-x="-9"
     inkscape:window-height="1001"
     inkscape:window-width="1920"
     showgrid="false"
     inkscape:document-rotation="0"
     inkscape:current-layer="g1578"
     inkscape:document-units="mm"
     inkscape:cy="1017.1429"
     inkscape:cx="400"
     inkscape:zoom="0.35"
     inkscape:pageshadow="2"
     inkscape:pageopacity="0.0"
     borderopacity="1.0"
     bordercolor="#666666"
     pagecolor="#ffffff"
     id="base" />
  <metadata
     id="metadata912">
    <rdf:RDF>
      <cc:Work
         rdf:about="">
        <dc:format>image/svg+xml</dc:format>
        <dc:type
           rdf:resource="http://purl.org/dc/dcmitype/StillImage" />
        <dc:title></dc:title>
      </cc:Work>
    </rdf:RDF>
  </metadata>
  <g
     id="layer1"
     inkscape:groupmode="layer"
     inkscape:label="Layer 1">
    <g
       transform="translate(6.0476238,22.67857)"
       id="g882"
       style="opacity:1;fill:#d38d5f">
      <path
         style="color:#000000;font-style:normal;font-variant:normal;font-weight:normal;font-stretch:normal;font-size:medium;line-height:normal;font-family:sans-serif;font-variant-ligatures:normal;font-variant-position:normal;font-variant-caps:normal;font-variant-numeric:normal;font-variant-alternates:normal;font-variant-east-asian:normal;font-feature-settings:normal;font-variation-settings:normal;text-indent:0;text-align:start;text-decoration:none;text-decoration-line:none;text-decoration-style:solid;text-decoration-color:#000000;letter-spacing:normal;word-spacing:normal;text-transform:none;writing-mode:lr-tb;direction:ltr;text-orientation:mixed;dominant-baseline:auto;baseline-shift:baseline;text-anchor:start;white-space:normal;shape-padding:0;shape-margin:0;inline-size:0;clip-rule:nonzero;display:inline;overflow:visible;visibility:visible;isolation:auto;mix-blend-mode:normal;color-interpolation:sRGB;color-interpolation-filters:linearRGB;solid-color:#000000;solid-opacity:1;vector-effect:none;fill:#d38d5f;fill-opacity:1;fill-rule:nonzero;stroke:none;stroke-width:8.46667;stroke-linecap:round;stroke-linejoin:round;stroke-miterlimit:4;stroke-dasharray:none;stroke-dashoffset:0;stroke-opacity:1;color-rendering:auto;image-rendering:auto;shape-rendering:auto;text-rendering:auto;enable-background:accumulate;stop-color:#000000;stop-opacity:1"
         d="m 484.56546,283.86014 c 0,105.00149 -85.12052,190.12201 -190.12201,190.12201 -105.00149,0 -190.12201,-85.12052 -190.12201,-190.12201 0,-105.00149 85.12052,-190.122011 190.12201,-190.122011 105.00149,0 190.12201,85.120521 190.12201,190.122011"
         id="path884" />
    </g>
    <path
       id="path937"
       d="M 434.74444,352.10548 A 144.76489,125.11012 0 0 1 299.5837,432.40446 144.76489,125.11012 0 0 1 171.98065,366.38057 c 2.10632,4.53141 4.45246,8.95371 7.0404,13.23589 10.31245,17.05782 24.18642,31.85617 40.50295,43.28263 22.35625,15.71106 49.53418,24.57421 76.77208,25.35298 17.74842,0.51681 35.57652,-2.36318 52.27895,-8.35866 12.82364,-4.59677 24.9926,-11.11872 35.92752,-19.19161 15.94639,-11.76157 29.49581,-26.90513 39.24824,-44.09445 4.42386,-7.79687 8.10874,-16.01406 10.99365,-24.50187 z"
       style="opacity:1;fill:#e9c6af;fill-opacity:1;stroke:none;stroke-width:8.46667;stroke-linecap:round;stroke-linejoin:round;stroke-opacity:1" />
    <rect
       style="opacity:0.580328;fill:#f4e3d7;fill-opacity:1;stroke-width:8.34162;stroke-linecap:round;stroke-linejoin:round"
       id="rect877"
       width="371.7626"
       height="89.517632"
       x="-34.909592"
       y="354.38599"
       ry="5.3553939"
       transform="matrix(0.92169551,-0.38791414,0.40800491,0.91297973,0,0)"
       rx="18.505363" />
    <path
       id="circle835"
       d="m 299.28604,164.73967 c -0.75189,0.004 -1.5042,0.0143 -2.25617,0.0305 -27.89871,0.81917 -55.70373,9.83164 -78.53009,26.11933 -15.03267,10.68337 -27.97231,24.33411 -37.81423,39.84201 -4.42696,6.95998 -8.21165,14.31039 -11.3342,21.92941 A 144.76489,125.11012 0 0 1 299.5837,182.1846 144.76489,125.11012 0 0 1 436.69265,267.14737 c -0.98476,-3.41889 -2.09878,-6.80184 -3.34659,-10.13737 -7.85849,-21.05439 -20.83622,-40.20721 -37.48349,-55.36923 -17.71563,-16.14819 -39.67053,-27.74422 -63.06591,-33.14733 -10.97177,-2.53279 -22.23222,-3.81665 -33.51062,-3.75377 z"
       style="opacity:1;fill:#c87137;fill-opacity:1;stroke:none;stroke-width:8.46667;stroke-linecap:round;stroke-linejoin:round;stroke-opacity:1" />
    <g
       transform="matrix(1.3458566,0,0,1.3458566,-105.83052,-79.802789)"
       id="g873">
      <g
         id="g1578">
        <g
           transform="matrix(0.77307303,0,0,0.63691685,280.19096,119.35649)"
           id="g1586">
          <text
             transform="scale(1.0873124,0.91969888)"
             id="text851"
             y="394.46521"
             x="-76.40065"
             style="font-style:normal;font-variant:normal;font-weight:normal;font-stretch:normal;font-size:275.85px;line-height:1.2;font-family:Coolvetica;-inkscape-font-specification:'Coolvetica, Normal';font-variant-ligatures:normal;font-variant-caps:normal;font-variant-numeric:normal;font-variant-east-asian:normal;opacity:0.901639;fill:#c87137;stroke-width:0.689625"
             xml:space="preserve"><tspan
               style="font-style:normal;font-variant:normal;font-weight:normal;font-stretch:normal;font-size:275.85px;font-family:Coolvetica;-inkscape-font-specification:'Coolvetica, Normal';font-variant-ligatures:normal;font-variant-caps:normal;font-variant-numeric:normal;font-variant-east-asian:normal;fill:#c87137;stroke-width:0.689625"
               y="394.46521"
               x="-76.40065"
               id="tspan849"
               sodipodi:role="line">VS</tspan></text>
          <text
             xml:space="preserve"
             style="font-style:normal;font-variant:normal;font-weight:normal;font-stretch:normal;font-size:275.85px;line-height:1.2;font-family:Coolvetica;-inkscape-font-specification:'Coolvetica, Normal';font-variant-ligatures:normal;font-variant-caps:normal;font-variant-numeric:normal;font-variant-east-asian:normal;opacity:0.734426;fill:#f4e3d7;fill-opacity:1;stroke-width:0.689625"
             x="-76.194008"
             y="379.09149"
             id="text855"
             transform="scale(1.0873124,0.91969888)"><tspan
               sodipodi:role="line"
               id="tspan853"
               x="-76.194008"
               y="379.09149"
               style="font-style:normal;font-variant:normal;font-weight:normal;font-stretch:normal;font-size:275.85px;font-family:Coolvetica;-inkscape-font-specification:'Coolvetica, Normal';font-variant-ligatures:normal;font-variant-caps:normal;font-variant-numeric:normal;font-variant-east-asian:normal;fill:#f4e3d7;fill-opacity:1;stroke-width:0.689625">VS</tspan></text>
          <text
             transform="scale(1.0873124,0.91969888)"
             id="text859"
             y="387.29776"
             x="-76.527657"
             style="font-style:normal;font-variant:normal;font-weight:normal;font-stretch:normal;font-size:275.85px;line-height:1.2;font-family:Coolvetica;-inkscape-font-specification:'Coolvetica, Normal';font-variant-ligatures:normal;font-variant-caps:normal;font-variant-numeric:normal;font-variant-east-asian:normal;fill:#f4e3d7;stroke-width:0.689625"
             xml:space="preserve"><tspan
               style="font-style:normal;font-variant:normal;font-weight:normal;font-stretch:normal;font-size:275.85px;font-family:Coolvetica;-inkscape-font-specification:'Coolvetica, Normal';font-variant-ligatures:normal;font-variant-caps:normal;font-variant-numeric:normal;font-variant-east-asian:normal;fill:#f4e3d7;stroke-width:0.689625"
               y="387.29776"
               x="-76.527657"
               id="tspan857"
               sodipodi:role="line">VS</tspan></text>
        </g>
      </g>
    </g>
    <path
       id="path886"
       d="m 303.89281,114.82905 c -107.28934,0 -194.35546,87.06612 -194.35546,194.35548 0,107.28934 87.06612,194.35546 194.35546,194.35546 107.23172,0 194.2581,-86.9736 194.35155,-194.18359 a 4.2333349,4.2333349 0 0 0 0.004,-0.17187 c 0,-0.0576 -0.004,-0.11425 -0.004,-0.17188 a 4.2333349,4.2333349 0 0 0 0,-0.0156 c -0.10197,-107.20278 -87.12507,-194.168 -194.35155,-194.168 z m 0,8.4668 c 102.71362,0 185.88867,83.17505 185.88867,185.88868 0,102.71361 -83.17505,185.88866 -185.88867,185.88866 -102.7136,0 -185.88866,-83.17505 -185.88866,-185.88866 0,-102.71363 83.17506,-185.88868 185.88866,-185.88868 z"
       style="color:#000000;font-style:normal;font-variant:normal;font-weight:normal;font-stretch:normal;font-size:medium;line-height:normal;font-family:sans-serif;font-variant-ligatures:normal;font-variant-position:normal;font-variant-caps:normal;font-variant-numeric:normal;font-variant-alternates:normal;font-variant-east-asian:normal;font-feature-settings:normal;font-variation-settings:normal;text-indent:0;text-align:start;text-decoration:none;text-decoration-line:none;text-decoration-style:solid;text-decoration-color:#000000;letter-spacing:normal;word-spacing:normal;text-transform:none;writing-mode:lr-tb;direction:ltr;text-orientation:mixed;dominant-baseline:auto;baseline-shift:baseline;text-anchor:start;white-space:normal;shape-padding:0;shape-margin:0;inline-size:0;clip-rule:nonzero;display:inline;overflow:visible;visibility:visible;opacity:1;isolation:auto;mix-blend-mode:normal;color-interpolation:sRGB;color-interpolation-filters:linearRGB;solid-color:#000000;solid-opacity:1;vector-effect:none;fill:#a05a2c;fill-opacity:1;fill-rule:nonzero;stroke:none;stroke-width:8.46667;stroke-linecap:round;stroke-linejoin:round;stroke-miterlimit:4;stroke-dasharray:none;stroke-dashoffset:0;stroke-opacity:1;color-rendering:auto;image-rendering:auto;shape-rendering:auto;text-rendering:auto;enable-background:accumulate;stop-color:#000000;stop-opacity:1" />
  </g>
</svg>
