<?xml version="1.0" encoding="UTF-8" standalone="no"?>
<svg
   xmlns:dc="http://purl.org/dc/elements/1.1/"
   xmlns:cc="http://creativecommons.org/ns#"
   xmlns:rdf="http://www.w3.org/1999/02/22-rdf-syntax-ns#"
   xmlns:svg="http://www.w3.org/2000/svg"
   xmlns="http://www.w3.org/2000/svg"
   xmlns:sodipodi="http://sodipodi.sourceforge.net/DTD/sodipodi-0.dtd"
   xmlns:inkscape="http://www.inkscape.org/namespaces/inkscape"
   inkscape:version="1.0 (4035a4fb49, 2020-05-01)"
   sodipodi:docname="icecream.svg"
   id="svg1146"
   version="1.1"
   viewBox="0 0 600 600"
   height="600mm"
   width="600mm">
  <defs
     id="defs1140" />
  <sodipodi:namedview
     inkscape:window-maximized="0"
     inkscape:window-y="0"
     inkscape:window-x="160"
     inkscape:window-height="1019"
     inkscape:window-width="1424"
     inkscape:object-nodes="false"
     showgrid="false"
     inkscape:document-rotation="0"
     inkscape:current-layer="layer1"
     inkscape:document-units="mm"
     inkscape:cy="800.08712"
     inkscape:cx="1035.5806"
     inkscape:zoom="0.35"
     inkscape:pageshadow="2"
     inkscape:pageopacity="0.0"
     borderopacity="1.0"
     bordercolor="#666666"
     pagecolor="#ffffff"
     id="base" />
  <metadata
     id="metadata1143">
    <rdf:RDF>
      <cc:Work
         rdf:about="">
        <dc:format>image/svg+xml</dc:format>
        <dc:type
           rdf:resource="http://purl.org/dc/dcmitype/StillImage" />
        <dc:title />
      </cc:Work>
    </rdf:RDF>
  </metadata>
  <g
     id="layer1"
     inkscape:groupmode="layer"
     inkscape:label="Layer 1">
    <g
       transform="matrix(1.8940046,0,0,1.8940046,-231.71321,17.097129)"
       id="g1009">
      <g
         transform="translate(-17.953869,14.098512)"
         id="g912">
        <path
           id="path904"
           style="opacity:1;fill:#f9ff49;fill-opacity:1;stroke:none;stroke-width:3.86641"
           d="m 299.78125,13.947266 c -0.63437,2.14513 -1.8556,4.085761 -3.42969,5.714843 -2.54175,2.630553 -5.84747,4.781207 -9,6.830079 -3.15253,2.048871 -6.15683,4.008293 -7.99218,5.861328 -1.83536,1.853034 -2.43164,3.120444 -1.86719,4.886718 1.33416,4.174833 4.21666,9.175961 7.9375,13.142578 3.72083,3.966618 8.23819,6.850819 12.72851,7.339844 6.57878,0.716472 14.66791,-4.168059 17.57618,-11.02539 1.79756,-4.238448 1.61572,-8.353022 0.28124,-12.390625 -1.33447,-4.037604 -3.87403,-7.933147 -6.70703,-11.294922 -3.68902,-4.377574 -7.0997,-7.201318 -9.52734,-9.064453 z" />
        <path
           id="path906"
           style="opacity:0.757377;fill:#f2daac;fill-opacity:1;stroke:none;stroke-width:3.86641"
           d="m 275.50393,37.875054 c -3.33537,-10.436992 24.35789,-15.312117 22.61069,-27.817805 0,0 27.59173,18.474199 19.5417,37.45518 -3.29154,7.761036 -12.02418,13.124443 -19.72463,12.285813 -10.39284,-1.131849 -19.53082,-12.858137 -22.42776,-21.923188 z"
           sodipodi:nodetypes="scsas" />
        <path
           id="path908"
           style="opacity:0.757377;fill:#ffffff;fill-opacity:1;stroke:none;stroke-width:14.6132"
           d="m 1133.1719,53.083984 c -0.081,0.269727 -0.1612,0.538867 -0.2422,0.808594 0.9238,0.401871 1.8484,0.803311 2.7695,1.214844 -0.8403,-0.678758 -1.6815,-1.354599 -2.5273,-2.023438 z m -1.3574,3.949219 c -5.3204,13.200316 -16.7955,22.71796 -27.9297,31.052735 -15.5322,11.531584 -33.1186,20.391312 -47.1231,33.902342 -4.4215,4.3747 -9.4451,9.88008 -8.1855,16.63477 1.1072,6.68324 4.8325,12.52465 7.4922,18.66015 11.23,22.44241 28.4573,42.48628 50.7207,54.48828 13.2977,6.74841 29.2395,8.39082 43.416,3.46094 0.7862,-0.25606 1.5671,-0.52744 2.3437,-0.8125 -1.6508,-0.20299 -3.2933,-0.4656 -4.9199,-0.80859 -24.6111,-5.83086 -46.4379,-20.73275 -63.0937,-39.50391 -4.157,-5.23808 -9.2672,-9.91699 -12.0664,-16.08594 -2.9649,-6.19852 0.4609,-12.81553 3.5996,-18.18554 10.0303,-16.67529 24.7239,-29.78665 36.7421,-44.945315 8.7259,-11.095549 17.4664,-23.459513 19.004,-37.857422 z"
           transform="scale(0.26458333)" />
        <path
           id="path910"
           style="opacity:0.757377;fill:#ffb62a;fill-opacity:1;stroke:none;stroke-width:14.6132"
           inkscape:transform-center-x="1.3229167"
           inkscape:transform-center-y="23.547917"
           d="m 1133.3496,42.808594 c 21.9417,24.79783 71.9365,90.536556 37.9766,142.345706 -14.4144,21.99042 -41.5086,35.39635 -66.3164,34.75 6.7738,3.17355 13.8212,5.32025 21.0312,6.10547 29.1041,3.16962 62.1084,-17.1025 74.5488,-46.43555 25.7877,-60.80421 -45.0012,-120.061491 -67.2402,-136.765626 z"
           transform="scale(0.26458333)" />
      </g>
      <g
         transform="translate(-117.96637,8.0130952)"
         id="g924">
        <path
           id="path914"
           style="fill:#3d6248;fill-opacity:1;stroke:none;stroke-width:3.91357"
           d="m 404.11202,49.827537 c -7.9073,-3.301719 -16.52903,-4.734927 -23.63358,-3.832235 -7.10455,0.902692 -12.77616,4.236119 -14.93921,9.373646 -2.17003,5.154388 -0.57316,11.565098 3.77781,17.292838 4.35098,5.72774 11.44775,10.899476 19.3712,14.235441 7.92329,3.33584 16.58136,4.797573 23.71869,3.906792 7.13732,-0.890781 12.83895,-4.228729 15.00916,-9.382915 2.16999,-5.154276 0.57295,-11.565202 -3.77781,-17.292839 -4.35039,-5.727146 -11.44575,-10.898071 -19.36813,-14.234152 -0.0518,-0.02192 -0.10317,-0.04353 -0.15507,-0.06529 a 1.7056304,1.7185775 22.832626 0 0 -0.003,-0.0013 z" />
        <path
           id="path916"
           style="fill:#5fd38d;fill-opacity:1;stroke:none;stroke-width:3.91357"
           d="m 425.84451,80.759264 a 31.8633,18.356601 22.832665 0 1 -36.48967,4.55395 31.8633,18.356601 22.832665 0 1 -22.24344,-29.282488 31.8633,18.356601 22.832665 0 1 36.48967,-4.553946 31.8633,18.356601 22.832665 0 1 22.24344,29.282484 z" />
        <path
           id="path918"
           style="opacity:0.832787;fill:#d7f4e3;fill-opacity:1;stroke:none;stroke-width:3.65978"
           d="m 403.01481,52.869218 a 30.363851,16.845768 22.832666 0 0 -34.52146,3.743348 30.363851,16.845768 22.832666 0 0 8.28828,19.300059 28.639481,17.525643 22.832667 0 1 -1.35332,-12.200049 28.639481,17.525643 22.832667 0 1 33.19602,-5.039075 28.639481,17.525643 22.832667 0 1 13.69321,9.073303 30.363851,16.845768 22.832666 0 0 -19.30273,-14.877586 z" />
        <path
           id="path920"
           style="opacity:0.632787;fill:#291f1f;fill-opacity:1;stroke:none;stroke-width:3.91358"
           d="m 412.06739,55.955458 a 38.385904,21.68043 22.832666 0 1 3.77676,17.642614 38.385904,21.68043 22.832666 0 1 -32.61429,8.673987 31.863299,18.3566 22.832666 0 0 6.12498,3.041146 31.863299,18.3566 22.832666 0 0 36.48968,-4.553947 31.863299,18.3566 22.832666 0 0 -13.77713,-24.8038 z" />
        <ellipse
           ry="2.5912714"
           rx="4.9596496"
           cy="250.56035"
           cx="321.13223"
           id="ellipse922"
           style="opacity:0.757377;fill:#d7f4e3;fill-opacity:1;stroke:none;stroke-width:0.58011"
           transform="matrix(0.86169582,-0.50742518,0.43577787,0.90005425,0,0)" />
      </g>
      <g
         transform="matrix(0.70965843,0,0,0.69896345,66.680277,0.65098768)"
         id="g940">
        <g
           transform="translate(133.19945,-4.7383099)"
           id="g938">
          <g
             transform="translate(-187.24635,1.3538028)"
             id="g936">
            <path
               d="m 350.00921,111.43862 c -15.12014,0.0444 -30.12275,3.59011 -41.05859,9.875 -10.93584,6.28489 -17.87697,15.51927 -17.87695,25.28125 2.1e-4,9.79394 6.98665,19.05579 17.98437,25.34375 10.99772,6.28796 26.08015,9.8126 41.25,9.8125 15.16952,-2e-4 30.25075,-3.52456 41.24805,-9.8125 10.9973,-6.28794 17.98416,-15.55002 17.98437,-25.34375 -2e-4,-9.79373 -6.98707,-19.05581 -17.98437,-25.34375 -10.99636,-6.2874 -26.07594,-9.81169 -41.24414,-9.8125 -0.0993,-1.5e-4 -0.19757,-1.5e-4 -0.29688,0 a 3.0096472,3.0096472 0 0 0 -0.006,0 z"
               style="opacity:1;fill:#784463;fill-opacity:1;stroke:none;stroke-width:6.87958"
               id="path926" />
            <path
               sodipodi:nodetypes="ssssss"
               d="m 406.53148,146.59462 c 1e-5,17.75423 -25.17232,32.14688 -56.22396,32.14688 -31.05164,0 -56.22395,-14.39265 -56.22395,-32.14688 0,-12.15197 11.7927,-22.72911 29.19175,-28.19428 8.02124,-2.51954 17.23402,-3.95259 27.0322,-3.95259 31.05163,0 56.22396,14.39264 56.22396,32.14687 z"
               style="opacity:1;fill:#ff81d7;fill-opacity:1;stroke:none;stroke-width:6.87958"
               id="path928" />
            <path
               d="m 350.30751,117.09357 a 53.578124,29.501039 0 0 0 -53.57812,29.50104 53.578124,29.501039 0 0 0 26.69397,25.51834 50.535411,30.691664 0 0 1 -10.55439,-18.77147 50.535411,30.691664 0 0 1 50.53542,-30.69166 50.535411,30.691664 0 0 1 28.48147,5.33921 53.578124,29.501039 0 0 0 -41.57835,-10.89546 z"
               style="opacity:0.632787;fill:#f9f9f9;fill-opacity:1;stroke:none;stroke-width:6.43345"
               id="path930" />
            <path
               d="m 367.81799,115.92309 a 67.68161,37.967708 0 0 1 18.20823,25.90902 67.68161,37.967708 0 0 1 -47.06452,36.16317 56.181023,32.146872 0 0 0 12.03399,0.7462 56.181023,32.146872 0 0 0 56.18103,-32.14687 56.181023,32.146872 0 0 0 -39.35873,-30.67152 z"
               style="opacity:0.632787;fill:#291f1f;fill-opacity:1;stroke:none;stroke-width:6.87696"
               id="path932" />
            <ellipse
               transform="matrix(0.90586693,-0.42356239,0.35366423,0.93537245,0,0)"
               style="opacity:0.586885;fill:#f9f9f9;fill-opacity:1;stroke:none;stroke-width:1.01955"
               id="ellipse934"
               cx="265.72894"
               cy="265.7381"
               rx="8.7395439"
               ry="4.5422125" />
          </g>
        </g>
      </g>
      <g
         transform="matrix(0.98542819,0,0,1,-10.474242,8.9958333)"
         id="g952">
        <path
           id="path942"
           style="fill:#352828;fill-opacity:1;stroke:none;stroke-width:22.7727"
           d="m 1105.7129,366.62695 c -50.0506,0.14699 -99.7123,11.88328 -135.91212,32.6875 -36.19975,20.80422 -59.17586,51.3715 -59.17578,83.68555 4.1e-4,19.76014 8.60363,38.86116 23.55664,55.48242 15.02391,-20.00907 40.21811,-32.96797 69.83006,-42.67773 37.5966,-12.32784 82.6635,-17.85354 125.8828,-16.58789 33.622,0.98468 65.8462,6.04115 92.6504,15.96093 25.3244,9.37214 46.041,22.63849 56.5196,43.47071 15.0453,-16.66015 23.7066,-35.82292 23.707,-55.64844 -7e-4,-32.41912 -23.1281,-63.07827 -59.5313,-83.89258 -36.4001,-20.81253 -86.3157,-32.47779 -136.5254,-32.48047 -0.3288,-5e-4 -0.6536,-5e-4 -0.9824,0 a 9.9625191,9.9625191 0 0 0 -0.02,0 z"
           transform="scale(0.26458333)" />
        <path
           id="path944"
           style="fill:#483737;fill-opacity:1;stroke:none;stroke-width:6.02528"
           d="m 292.81416,95.934709 a 49.242202,28.154952 0 0 0 -49.24195,28.154851 49.242202,28.154952 0 0 0 5.29115,12.69638 c 0.24098,-0.24978 0.48948,-0.49422 0.74362,-0.73484 0.0242,-0.023 0.0485,-0.0459 0.0729,-0.0687 0.52032,-0.48852 1.06654,-0.95895 1.63866,-1.41129 0.013,-0.0102 0.0263,-0.0202 0.0393,-0.0305 0.27561,-0.2171 0.55744,-0.43008 0.84439,-0.63924 0.0188,-0.0137 0.0375,-0.0276 0.0563,-0.0413 0.59811,-0.43378 1.22012,-0.85085 1.86449,-1.25212 0.0297,-0.0185 0.0596,-0.0369 0.0894,-0.0553 0.29426,-0.18201 0.59279,-0.36074 0.89607,-0.5364 0.0314,-0.0182 0.0625,-0.0366 0.094,-0.0548 0.65796,-0.37854 1.33651,-0.7424 2.03398,-1.09295 0.0457,-0.023 0.0916,-0.0459 0.13746,-0.0687 0.30686,-0.15292 0.61728,-0.30326 0.93121,-0.45114 0.0508,-0.0239 0.10093,-0.0485 0.15193,-0.0724 0.34878,-0.16282 0.70183,-0.32262 1.05885,-0.47955 0.0421,-0.0185 0.0849,-0.0363 0.12712,-0.0548 0.31995,-0.13966 0.64325,-0.2772 0.96945,-0.41238 0.0695,-0.0288 0.139,-0.0577 0.20878,-0.0863 0.33353,-0.13671 0.66957,-0.2713 1.00924,-0.40359 0.0365,-0.0142 0.0725,-0.0287 0.10903,-0.0429 0.36615,-0.14184 0.73612,-0.28108 1.10898,-0.41806 0.092,-0.0338 0.18507,-0.0667 0.2775,-0.10026 0.22306,-0.0809 0.44804,-0.1605 0.67335,-0.23978 0.54297,-0.19106 1.09011,-0.37913 1.64537,-0.5612 6.21715,-2.03859 13.20623,-3.37433 20.36569,-4.00751 1.43187,-0.12665 2.87068,-0.22512 4.31136,-0.29559 1.44068,-0.0705 2.8834,-0.11282 4.32324,-0.12712 1.43986,-0.0143 2.87681,-5.2e-4 4.3062,0.0413 1.66799,0.0489 3.3229,0.13552 4.95784,0.26148 1.08998,0.084 2.17107,0.18561 3.24115,0.30489 1.07008,0.11927 2.12894,0.25648 3.175,0.41186 1.6e-4,3e-5 3.4e-4,-2e-5 5.3e-4,0 1.04587,0.15537 2.07872,0.32912 3.09644,0.52142 1.6e-4,3e-5 3.5e-4,-3e-5 5e-4,0 0.50877,0.0961 1.0137,0.19679 1.51466,0.30231 1.6e-4,3e-5 3.5e-4,-4e-5 5.1e-4,0 0.091,0.0192 0.18007,0.0405 0.27077,0.0599 0.9084,0.19503 1.80533,0.40385 2.68513,0.63045 0.96779,0.24928 1.91711,0.51789 2.84633,0.80615 1.6e-4,6e-5 3.7e-4,-4e-5 5e-4,0 0.15074,0.0468 0.29739,0.0974 0.44702,0.14522 0.3117,0.0996 0.62431,0.19821 0.9312,0.3023 0.45397,0.15397 0.90313,0.31301 1.34617,0.47698 0.40344,0.1493 0.80103,0.30345 1.19528,0.46043 0.12973,0.0517 0.25734,0.1051 0.38603,0.15762 0.26718,0.10903 0.53274,0.21943 0.79528,0.33228 0.14396,0.0619 0.28694,0.12454 0.42945,0.18758 0.24704,0.1093 0.49122,0.2209 0.73379,0.33383 0.14121,0.0657 0.28308,0.13093 0.42273,0.19792 0.31419,0.15076 0.62418,0.30465 0.93017,0.46199 0.0517,0.0266 0.10512,0.0518 0.15658,0.0786 0.35406,0.18422 0.70104,0.37437 1.04336,0.56792 0.26593,0.15035 0.529,0.30269 0.78753,0.45889 0.025,0.0151 0.0496,0.0303 0.0744,0.0455 0.27736,0.16869 0.55067,0.34054 0.81907,0.51625 0.004,0.003 0.008,0.005 0.0119,0.007 0.001,8.9e-4 0.003,0.002 0.004,0.003 0.27417,0.17975 0.54282,0.36404 0.8072,0.55139 0.0219,0.0155 0.0438,0.0309 0.0656,0.0465 0.2644,0.1886 0.52461,0.38069 0.77875,0.57722 8.7e-4,6.7e-4 0.002,0.001 0.003,0.002 0.002,0.002 0.005,0.004 0.007,0.006 0.2508,0.19417 0.49549,0.39265 0.73589,0.5948 0.0177,0.0149 0.0356,0.0295 0.0532,0.0444 0.24116,0.20407 0.47675,0.41235 0.70694,0.62477 0.0141,0.013 0.0278,0.0263 0.0418,0.0393 0.46173,0.42839 0.9008,0.87408 1.3157,1.33791 0.0199,0.0223 0.0396,0.0448 0.0594,0.0672 0.20418,0.23043 0.40323,0.46482 0.59531,0.70435 0.002,0.002 0.004,0.005 0.006,0.007 0.004,0.005 0.009,0.0111 0.0129,0.0165 0.19712,0.24661 0.38762,0.49797 0.57153,0.75447 7.1e-4,0.001 10e-4,0.002 0.002,0.003 a 49.242202,28.154952 0 0 0 5.0395,-12.40751 49.242202,28.154952 0 0 0 -49.24248,-28.154851 z" />
        <path
           id="path946"
           style="opacity:0.632787;fill:#e6e6e6;fill-opacity:1;stroke:none;stroke-width:21.296"
           d="M 1106.6992,385.3457 A 177.35404,97.654189 0 0 0 929.3457,483 a 177.35404,97.654189 0 0 0 17.39844,42.17969 c 6.9e-4,-6e-4 10e-4,-0.001 0.002,-0.002 0.32046,-0.27515 0.64948,-0.54451 0.97461,-0.8164 0.40098,-0.33531 0.80293,-0.66961 1.21094,-1 0.35871,-0.29049 0.72187,-0.57849 1.08594,-0.86524 0.35508,-0.27964 0.71213,-0.55787 1.07226,-0.83398 0.41109,-0.31522 0.82463,-0.62877 1.24219,-0.93945 0.32471,-0.24155 0.65384,-0.47992 0.98242,-0.71875 0.43273,-0.3146 0.86338,-0.63146 1.30274,-0.94141 0.24718,-0.17434 0.50074,-0.3447 0.75,-0.51758 0.89176,-0.61865 1.79701,-1.22779 2.71484,-1.82812 0.35976,-0.23525 0.71835,-0.47064 1.08203,-0.70313 0.44053,-0.28169 0.88583,-0.56019 1.33203,-0.83789 0.37529,-0.23349 0.75162,-0.46656 1.13086,-0.69726 0.48013,-0.29215 0.96283,-0.58141 1.44922,-0.86914 0.16587,-0.0981 0.33341,-0.19539 0.5,-0.29297 2.89309,-1.69524 5.89287,-3.31411 8.99219,-4.86329 0.11457,-0.0573 0.22891,-0.1148 0.34375,-0.17187 3.19203,-1.58653 6.48639,-3.10123 9.87305,-4.54883 0.002,-8.1e-4 0.004,-10e-4 0.006,-0.002 a 167.28206,101.59539 0 0 1 167.26169,-99.99219 167.28206,101.59539 0 0 1 94.2793,17.67383 177.35404,97.654189 0 0 0 -137.6328,-36.06641 z"
           transform="scale(0.26458333)" />
        <path
           id="path948"
           style="opacity:0.632787;fill:#291f1f;fill-opacity:1;stroke:none;stroke-width:22.7728"
           d="m 1162.4277,381.4707 a 224.21052,125.68051 0 0 1 60.3184,85.76368 224.21052,125.68051 0 0 1 -4.9492,26.25976 c 1.5988,0.54544 3.1852,1.10524 4.748,1.68359 1.5248,0.56429 3.0275,1.14691 4.5176,1.74024 0.4903,0.19523 0.9726,0.39722 1.459,0.5957 1.0098,0.4121 2.0135,0.82934 3.0058,1.25586 0.5441,0.23382 1.0845,0.47071 1.6231,0.70899 0.9337,0.4131 1.8566,0.83488 2.7734,1.26171 0.5337,0.24842 1.0699,0.49486 1.5977,0.74805 1.1875,0.56979 2.3591,1.15144 3.5156,1.7461 0.1954,0.10043 0.3973,0.19571 0.5918,0.29687 1.3382,0.69627 2.6496,1.41494 3.9434,2.14648 1.0051,0.56824 1.9994,1.14403 2.9765,1.73438 0.094,0.057 0.1873,0.11471 0.2813,0.17187 1.0483,0.63754 2.0813,1.28708 3.0957,1.95118 0.015,0.01 0.03,0.0178 0.045,0.0273 0.01,0.003 0.01,0.006 0.016,0.01 1.0362,0.67935 2.0516,1.3759 3.0508,2.08398 0.083,0.0586 0.1656,0.11696 0.2481,0.17578 0.9993,0.71282 1.9828,1.43886 2.9433,2.18164 0,0.003 0.01,0.005 0.01,0.008 0.01,0.007 0.018,0.0144 0.027,0.0215 0.9479,0.73385 1.8727,1.48402 2.7813,2.24805 0.067,0.0562 0.1346,0.11162 0.2011,0.16796 0.9115,0.77127 1.8019,1.55847 2.6719,2.36133 0.053,0.0491 0.1052,0.0992 0.1582,0.14844 1.7451,1.61909 3.4046,3.30359 4.9727,5.05664 0.075,0.0842 0.1497,0.16936 0.2246,0.25391 0.7717,0.87093 1.524,1.75683 2.25,2.66211 0.01,0.009 0.016,0.018 0.023,0.0273 0.017,0.0206 0.032,0.0418 0.049,0.0625 0.745,0.93209 1.465,1.88211 2.1601,2.85156 0,0.004 0.01,0.008 0.01,0.0117 A 186.11225,106.41241 0 0 0 1292.8125,483 186.11225,106.41241 0 0 0 1162.4277,381.4707 Z"
           transform="scale(0.26458333)" />
        <ellipse
           ry="3.9781716"
           rx="7.6542883"
           cy="226.25298"
           cx="219.81677"
           id="ellipse950"
           style="opacity:0.632787;fill:#cccccc;fill-opacity:1;stroke:none;stroke-width:0.892945"
           transform="matrix(0.90586693,-0.42356239,0.35366423,0.93537245,0,0)" />
      </g>
      <g
         transform="matrix(1,0,0,0.96139457,-7.1815477,9.9304171)"
         id="g972">
        <path
           id="path954"
           style="opacity:1;fill:#df9b6b;fill-opacity:1;stroke:none;stroke-width:6.05019"
           inkscape:transform-center-x="0.54177016"
           inkscape:transform-center-y="10.095319"
           d="m 286.95566,257.224 c -17.71907,0.72434 -54.89798,-86.30382 -46.47362,-108.7852 8.42434,-22.48139 79.30065,-25.37875 88.59538,-3.6217 9.29472,21.75703 -24.40268,111.68256 -42.12176,112.4069 z" />
        <path
           id="path956"
           style="opacity:1;fill:#b86428;fill-opacity:1;stroke:none;stroke-width:6.0502"
           inkscape:transform-center-x="0.54177016"
           inkscape:transform-center-y="10.095319"
           d="m 288.18847,129.95095 c -5.98125,0.0364 -12.03788,0.57982 -17.75294,1.60662 14.22858,-1.934 27.15914,-0.25285 32.48123,6.85643 12.89884,17.23033 4.57555,97.69065 -9.86504,115.76347 18.27721,-15.95934 44.33633,-89.90682 36.02572,-109.36025 -4.35692,-10.19861 -22.24492,-14.97988 -40.88897,-14.86627 z" />
        <path
           id="path958"
           style="opacity:0.701639;fill:#ffffff;fill-opacity:1;stroke:none;stroke-width:6.0502"
           inkscape:transform-center-x="0.54177016"
           inkscape:transform-center-y="10.095319"
           d="m 286.96477,133.56364 c -0.35727,-8e-5 -0.71451,-0.001 -1.07177,0.001 -11.03541,0.18589 -22.22614,1.82483 -32.38046,6.31693 -4.20983,1.86868 -8.39738,4.50606 -10.6717,8.6496 -1.87852,3.53819 -1.56837,7.68947 -1.33584,11.55175 0.84786,11.15922 4.15028,21.93129 7.61297,32.51171 5.07605,14.86383 11.54854,29.27313 19.56626,42.7886 3.3664,5.53642 7.12549,10.93059 11.92691,15.32517 1.36597,1.13315 2.90643,2.02834 4.4731,2.85202 1.23571,-0.59376 2.36903,-1.33182 3.42305,-2.16938 -4.36033,-4.12411 -7.92856,-8.92434 -11.1683,-13.83481 -8.9259,-13.86693 -16.13162,-28.65086 -21.78265,-43.9012 -3.85491,-10.85555 -7.53156,-21.90773 -8.47545,-33.35713 -0.25888,-3.96272 -0.60406,-8.2218 1.48724,-11.85199 2.53193,-4.2513 7.19374,-6.95712 11.88042,-8.8744 8.38432,-3.41833 17.4037,-5.22405 26.51622,-6.0079 z" />
        <path
           d="m 289.21845,140.26929 c -16.86375,0.10276 -34.50272,5.22317 -38.07454,14.75503 -0.33211,0.88626 -0.57378,1.90011 -0.73454,3.02309 12.8422,-15.05141 57.6612,-17.23892 72.10398,-3.85991 -0.17907,-0.74873 -0.39796,-1.43648 -0.66153,-2.05347 -3.47725,-8.13949 -17.75361,-11.95541 -32.63337,-11.86474 z"
           inkscape:transform-center-y="8.0570422"
           inkscape:transform-center-x="0.43238272"
           style="opacity:1;fill:#b86428;fill-opacity:1;stroke:none;stroke-width:4.82865"
           id="path960" />
        <path
           d="m 292.3125,157.73155 c -16.3687,0.0875 -33.48987,4.44589 -36.95683,12.5593 -0.32236,0.75437 -0.55694,1.61735 -0.71298,2.57322 12.46521,-12.81158 55.96851,-14.67356 69.98731,-3.28551 -0.17381,-0.63731 -0.38627,-1.22272 -0.64211,-1.74789 -3.37517,-6.92824 -17.23244,-10.1763 -31.67539,-10.09912 z"
           inkscape:transform-center-y="6.8580645"
           inkscape:transform-center-x="0.4196947"
           style="opacity:1;fill:#b86428;fill-opacity:1;stroke:none;stroke-width:4.38903"
           id="path962" />
        <path
           d="m 293.3109,174.66463 c -15.19296,0.0707 -31.08434,3.5909 -34.30227,10.144 -0.29921,0.6093 -0.51694,1.30632 -0.66177,2.07836 11.56985,-10.34776 51.94838,-11.85166 64.96023,-2.65367 -0.16133,-0.51474 -0.35853,-0.98757 -0.59599,-1.41175 -3.13274,-5.59586 -15.99466,-8.21928 -29.4002,-8.15694 z"
           inkscape:transform-center-y="5.5391742"
           inkscape:transform-center-x="0.38954699"
           style="opacity:1;fill:#b86428;fill-opacity:1;stroke:none;stroke-width:3.80018"
           id="path964" />
        <path
           d="m 294.04115,190.11428 c -12.81294,0.0579 -26.21489,2.93853 -28.92872,8.3011 -0.25234,0.4986 -0.43596,1.06899 -0.5581,1.70077 9.7574,-8.46784 43.81051,-9.69852 54.78402,-2.17156 -0.13606,-0.42123 -0.30237,-0.80816 -0.50263,-1.15527 -2.64199,-4.57924 -13.48905,-6.72605 -24.79457,-6.67504 z"
           inkscape:transform-center-y="4.5328445"
           inkscape:transform-center-x="0.32851866"
           style="opacity:1;fill:#b86428;fill-opacity:1;stroke:none;stroke-width:3.15697"
           id="path966" />
        <path
           d="m 294.32905,205.19511 c -9.71889,0.0303 -19.88456,1.53944 -21.94306,4.34879 -0.1914,0.26121 -0.33068,0.56002 -0.42332,0.891 7.4012,-4.43614 33.23121,-5.08087 41.55485,-1.13764 -0.1032,-0.22067 -0.22935,-0.42338 -0.38126,-0.60522 -2.004,-2.39898 -10.23173,-3.52366 -18.80721,-3.49693 z"
           inkscape:transform-center-y="2.3746753"
           inkscape:transform-center-x="0.2491893"
           style="opacity:1;fill:#b86428;fill-opacity:1;stroke:none;stroke-width:1.99009"
           id="path968" />
        <path
           id="path970"
           style="opacity:1;fill:#b86428;fill-opacity:1;stroke:none;stroke-width:1.91255"
           inkscape:transform-center-x="0.23014998"
           inkscape:transform-center-y="2.3746753"
           d="m 292.62016,217.36595 c -8.97632,0.0303 -18.36528,1.53944 -20.2665,4.34879 -0.17678,0.26121 -0.30542,0.56002 -0.39098,0.891 6.83571,-4.43614 30.69218,-5.08087 38.37985,-1.13764 -0.0953,-0.22067 -0.21183,-0.42338 -0.35213,-0.60522 -1.85088,-2.39898 -9.44997,-3.52366 -17.37024,-3.49693 z" />
      </g>
    </g>
  </g>
</svg>
