<?xml version="1.0" encoding="UTF-8" standalone="no"?>
<svg
   xmlns:dc="http://purl.org/dc/elements/1.1/"
   xmlns:cc="http://creativecommons.org/ns#"
   xmlns:rdf="http://www.w3.org/1999/02/22-rdf-syntax-ns#"
   xmlns:svg="http://www.w3.org/2000/svg"
   xmlns="http://www.w3.org/2000/svg"
   xmlns:sodipodi="http://sodipodi.sourceforge.net/DTD/sodipodi-0.dtd"
   xmlns:inkscape="http://www.inkscape.org/namespaces/inkscape"
   sodipodi:docname="jellybean4.svg"
   inkscape:version="1.0 (4035a4fb49, 2020-05-01)"
   id="svg1477"
   version="1.1"
   viewBox="0 0 600 600"
   height="600mm"
   width="600mm">
  <defs
     id="defs1471" />
  <sodipodi:namedview
     inkscape:window-maximized="0"
     inkscape:window-y="0"
     inkscape:window-x="32"
     inkscape:window-height="1019"
     inkscape:window-width="1424"
     showgrid="false"
     inkscape:document-rotation="0"
     inkscape:current-layer="g1441"
     inkscape:document-units="mm"
     inkscape:cy="1495.2474"
     inkscape:cx="1133.8583"
     inkscape:zoom="0.33205208"
     inkscape:pageshadow="2"
     inkscape:pageopacity="0.0"
     borderopacity="1.0"
     bordercolor="#666666"
     pagecolor="#ffffff"
     id="base" />
  <metadata
     id="metadata1474">
    <rdf:RDF>
      <cc:Work
         rdf:about="">
        <dc:format>image/svg+xml</dc:format>
        <dc:type
           rdf:resource="http://purl.org/dc/dcmitype/StillImage" />
        <dc:title></dc:title>
      </cc:Work>
    </rdf:RDF>
  </metadata>
  <g
     id="layer1"
     inkscape:groupmode="layer"
     inkscape:label="Layer 1">
    <g
       transform="translate(12.567801,-9.4661431)"
       id="g1441">
      <g
         transform="translate(-3.187251,9.561753)"
         id="g2061">
        <path
           id="path833"
           style="opacity:1;fill:#ffff49;fill-opacity:1;stroke:#c59a00;stroke-width:9.14475;stroke-linecap:round;stroke-linejoin:round;stroke-opacity:1"
           d="m 462.67892,378.81407 c -17.847,85.32504 -188.43877,59.77176 -263.16897,16.58856 -88.88793,-51.36429 -120.5245,-206.95492 -44.21179,-234.99816 75.98407,-27.92246 88.5229,43.82609 166.97855,74.10751 72.18729,27.86204 158.2492,58.97705 140.40221,144.30209 z"
           sodipodi:nodetypes="sssss" />
        <path
           id="path836"
           style="opacity:1;fill:#ecb800;fill-opacity:1;stroke:none;stroke-width:9.14474;stroke-linecap:round;stroke-linejoin:round;stroke-opacity:1"
           d="m 121.73438,279.38294 c 6.09299,23.38599 16.30263,45.6745 30.13092,65.50675 12.04152,17.20223 27.01895,32.53919 44.77728,43.8702 8.28479,5.30312 17.18079,9.61959 26.18597,13.60897 20.67926,9.10561 42.43443,15.63269 64.47286,20.52565 22.00733,4.82771 44.49464,7.78174 67.02681,8.15242 16.23501,0.22858 32.49804,-0.97909 48.34448,-4.69487 12.18098,-2.92604 24.17289,-7.47947 34.33699,-14.93274 7.5375,-5.52524 13.94016,-12.76045 17.8449,-21.29911 3.74282,-8.08729 5.38821,-16.97379 6.11364,-25.7651 0.51541,-6.41096 0.46835,-12.88334 -0.40964,-19.271 -2.19298,10.22082 -6.41434,20.12362 -13.05953,28.25687 -8.47265,10.58783 -20.13472,18.28351 -32.65636,23.2694 -13.69721,5.51168 -28.35109,8.28126 -43.01322,9.57695 -19.60678,1.65968 -39.35967,0.57132 -58.84047,-1.98205 -27.80651,-3.73324 -55.15597,-10.7854 -81.35359,-20.81589 -15.36916,-5.96298 -30.38993,-13.01578 -44.21527,-22.04142 -20.46926,-13.65795 -37.17945,-32.40832 -50.18084,-53.18644 -6.06664,-9.66815 -11.35082,-19.8206 -15.88775,-30.29226 0.12761,0.50455 0.25521,1.00911 0.38282,1.51367 z" />
        <path
           id="path858"
           style="opacity:1;fill:#ffffff;fill-opacity:1;stroke:none;stroke-width:9.14501;stroke-linecap:round;stroke-linejoin:round;stroke-miterlimit:4;stroke-dasharray:none;stroke-opacity:1"
           d="m 185.36719,155.69777 c -10.70331,0.39752 -21.30724,3.08938 -31.17383,7.03516 -5.51407,2.3249 -10.55404,5.35733 -15.01576,9.33741 -6.99858,6.20389 -12.29479,14.07519 -15.89019,22.70115 -1.44683,3.52014 -2.67953,7.17516 -3.65635,10.82465 -1.9642,7.31976 -3.00096,14.82923 -3.42598,22.41804 -0.94658,17.45332 1.50896,34.95243 6.07505,51.8216 0.48163,1.73749 0.95828,3.47631 1.48159,5.20184 -2.21049,-15.95106 -2.33611,-32.30935 0.80915,-48.14542 2.73484,-13.52916 8.19984,-26.76145 17.30022,-37.27255 5.99674,-6.93318 13.5222,-12.5675 21.97815,-16.14029 8.88859,-3.9168 18.40105,-6.30488 28.00991,-7.60122 12.0606,-1.42366 24.55473,0.14391 35.67405,5.12432 11.91095,5.17709 22.2406,13.26184 32.03733,21.65527 12.67674,10.83586 24.88631,22.2775 38.49498,31.96791 11.53773,8.30008 23.99267,15.38213 37.23393,20.63124 9.7337,3.9526 19.6228,7.55381 29.36025,11.52577 21.2963,8.50067 42.44008,17.70249 61.98946,29.77884 8.14935,5.06658 15.98438,10.6785 23.14382,17.07964 -8.44989,-13.65087 -20.62739,-24.4693 -33.80113,-33.45826 -12.48719,-8.51472 -25.9524,-15.41666 -39.65198,-21.75096 -20.2064,-9.28703 -41.13701,-16.84758 -61.72902,-25.20793 -18.67849,-7.98753 -35.59582,-19.59389 -51.05325,-32.67875 -11.97667,-10.01889 -23.24786,-20.87273 -35.83804,-30.10726 -6.97588,-5.04275 -14.54457,-9.42682 -22.79963,-12.03317 -6.25411,-1.9495 -12.95725,-2.88187 -19.55273,-2.70703 z" />
        <ellipse
           style="opacity:1;fill:#ffffff;fill-opacity:1;stroke:none;stroke-width:9.14501;stroke-linecap:round;stroke-linejoin:round;stroke-miterlimit:4;stroke-dasharray:none;stroke-opacity:1"
           id="path882"
           cx="212.3506"
           cy="193.2271"
           rx="11.553784"
           ry="9.9601593" />
        <ellipse
           style="opacity:1;fill:#ffffff;fill-opacity:1;stroke:none;stroke-width:9.14501;stroke-linecap:round;stroke-linejoin:round;stroke-miterlimit:4;stroke-dasharray:none;stroke-opacity:1"
           id="path884"
           cx="231.07568"
           cy="202.78883"
           rx="7.1713147"
           ry="6.7729082" />
      </g>
    </g>
  </g>
</svg>
