<?xml version="1.0" encoding="UTF-8" standalone="no"?>
<svg
   xmlns:dc="http://purl.org/dc/elements/1.1/"
   xmlns:cc="http://creativecommons.org/ns#"
   xmlns:rdf="http://www.w3.org/1999/02/22-rdf-syntax-ns#"
   xmlns:svg="http://www.w3.org/2000/svg"
   xmlns="http://www.w3.org/2000/svg"
   xmlns:sodipodi="http://sodipodi.sourceforge.net/DTD/sodipodi-0.dtd"
   xmlns:inkscape="http://www.inkscape.org/namespaces/inkscape"
   sodipodi:docname="lollipop4.svg"
   inkscape:version="1.0 (4035a4fb49, 2020-05-01)"
   id="svg2830"
   version="1.1"
   viewBox="0 0 600 600"
   height="600mm"
   width="600mm">
  <defs
     id="defs2824" />
  <sodipodi:namedview
     inkscape:window-maximized="1"
     inkscape:window-y="-9"
     inkscape:window-x="-9"
     inkscape:window-height="1001"
     inkscape:window-width="1920"
     showgrid="false"
     inkscape:document-rotation="0"
     inkscape:current-layer="layer1"
     inkscape:document-units="mm"
     inkscape:cy="1257.2714"
     inkscape:cx="1133.8583"
     inkscape:zoom="0.32411458"
     inkscape:pageshadow="2"
     inkscape:pageopacity="0.0"
     borderopacity="1.0"
     bordercolor="#666666"
     pagecolor="#ffffff"
     id="base" />
  <metadata
     id="metadata2827">
    <rdf:RDF>
      <cc:Work
         rdf:about="">
        <dc:format>image/svg+xml</dc:format>
        <dc:type
           rdf:resource="http://purl.org/dc/dcmitype/StillImage" />
        <dc:title></dc:title>
      </cc:Work>
    </rdf:RDF>
  </metadata>
  <g
     id="layer1"
     inkscape:groupmode="layer"
     inkscape:label="Layer 1">
    <rect
       transform="matrix(0.0032891,-0.99999459,0.99996997,0.00774937,0,0)"
       ry="9.713006"
       y="301.74741"
       x="-523.74957"
       height="19.426012"
       width="223.65852"
       id="rect1488-4"
       style="opacity:0.747541;fill:#c87137;fill-opacity:1;stroke:none;stroke-width:4.58959;stroke-linecap:round;stroke-linejoin:round" />
    <rect
       transform="matrix(0.0032891,-0.99999459,0.99996997,0.00774937,0,0)"
       style="fill:#ddab7f;fill-opacity:1;stroke:none;stroke-width:4.58959;stroke-linecap:round;stroke-linejoin:round"
       id="rect1469-2"
       width="223.65852"
       height="19.426012"
       x="-523.74957"
       y="297.95523"
       ry="7.5846996" />
    <rect
       transform="matrix(0.0032891,-0.99999459,0.99996997,0.00774937,0,0)"
       style="fill:#ffe6d5;fill-opacity:1;stroke:none;stroke-width:4.58959;stroke-linecap:round;stroke-linejoin:round"
       id="rect1486-1"
       width="223.65852"
       height="19.426012"
       x="-523.74957"
       y="285.07935"
       ry="7.5846996" />
    <rect
       transform="matrix(0.0032891,-0.99999459,0.99996997,0.00774937,0,0)"
       ry="7.5846996"
       y="288.18201"
       x="-523.74957"
       height="19.426012"
       width="223.65852"
       id="rect1469-1-0"
       style="fill:#f1c79b;fill-opacity:1;stroke:none;stroke-width:4.58959;stroke-linecap:round;stroke-linejoin:round" />
    <ellipse
       ry="102.90642"
       rx="104.50004"
       cy="216.67015"
       cx="301.44077"
       id="path1467"
       style="opacity:0.999;fill:#ffdd55;fill-opacity:1;stroke:#e5ff2c;stroke-width:6.37945;stroke-linecap:round;stroke-linejoin:round;stroke-opacity:1" />
    <path
       d="m 278.26485,128.35633 c -9.54206,0.16613 -19.03848,2.30979 -27.97138,6.29454 -8.89188,3.94632 -17.25261,9.78958 -24.35283,17.19201 -9.5736,9.90655 -16.99857,22.68975 -21.25816,36.66262 -3.61892,11.88712 -4.97811,24.66417 -3.93939,37.18525 0.73092,8.92184 2.64642,17.76529 5.71093,26.06648 3.67244,9.90993 8.98157,19.12459 15.48757,26.91085 7.55394,9.08651 16.81812,16.29764 26.97312,21.05936 11.62938,5.48036 24.34232,7.79433 36.8327,6.57583 5.9597,-0.55396 11.88569,-1.8696 17.56185,-3.90483 0.91729,-0.25421 -0.006,-0.18207 -0.45054,-0.19458 -18.68664,-0.35219 -37.36511,-6.85858 -52.72715,-19.16154 -11.95016,-9.6281 -21.74885,-23.00297 -27.22113,-38.60206 -6.30633,-17.89395 -6.46079,-38.6121 -0.0835,-56.51131 5.6058,-16.19012 15.84435,-30.04648 28.40574,-39.72975 13.1331,-10.24376 28.6384,-16.27761 44.42731,-17.89284 -5.71189,-1.36586 -11.55304,-2.01006 -17.39517,-1.95003 z"
       style="opacity:1;fill:#ffffff;fill-opacity:1;stroke:none;stroke-width:5.4102;stroke-linecap:round;stroke-linejoin:round"
       id="ellipse1536" />
    <path
       d="m 362.58525,135.63461 c 12.94163,16.69517 20.73829,37.3795 21.7065,58.50376 1.14079,23.14722 -5.78821,46.61804 -19.40458,65.38147 -12.62708,17.57357 -30.78409,31.1087 -51.25515,38.13702 -19.77503,6.88698 -41.58064,7.85405 -61.86458,2.6173 -5.75292,-1.4672 -11.38223,-3.41357 -16.81891,-5.79773 14.15241,11.35575 31.43947,18.84436 49.4491,21.55609 17.67784,2.66532 36.11647,0.65091 52.85298,-5.78727 16.48065,-6.30151 31.28027,-16.91704 42.53583,-30.59736 10.18146,-12.29638 17.38446,-27.14521 20.72366,-42.80792 2.44117,-11.40923 2.91518,-23.34701 1.25376,-34.92795 -2.86046,-20.4725 -12.29346,-40.03477 -26.5891,-55.04179 -3.9288,-4.15111 -8.16464,-7.95302 -12.72037,-11.40163 0.0436,0.0553 0.0872,0.11068 0.13086,0.16601 z"
       inkscape:transform-center-y="-114.74104"
       inkscape:transform-center-x="-14.342629"
       style="opacity:1;fill:#eabb00;fill-opacity:1;stroke:none;stroke-width:6.37945;stroke-linecap:round;stroke-linejoin:round"
       id="path1467-3" />
    <rect
       style="opacity:0.747541;fill:#b6cf00;fill-opacity:1;stroke:none;stroke-width:5.68619;stroke-linecap:round;stroke-linejoin:round"
       id="rect1488"
       width="223.66016"
       height="29.817812"
       x="188.57809"
       y="211.83714"
       ry="14.908905" />
    <rect
       ry="11.642077"
       y="206.01639"
       x="188.57809"
       height="29.817812"
       width="223.66016"
       id="rect1469"
       style="opacity:1;fill:#eabb00;fill-opacity:1;stroke:none;stroke-width:5.68619;stroke-linecap:round;stroke-linejoin:round" />
    <rect
       ry="11.642077"
       y="186.25261"
       x="188.57809"
       height="29.817812"
       width="223.66016"
       id="rect1486"
       style="opacity:1;fill:#f0fbfb;fill-opacity:1;stroke:none;stroke-width:5.68619;stroke-linecap:round;stroke-linejoin:round" />
    <rect
       style="opacity:1;fill:#ffdd55;fill-opacity:1;stroke:none;stroke-width:5.68619;stroke-linecap:round;stroke-linejoin:round"
       id="rect1469-1"
       width="223.66016"
       height="29.817812"
       x="188.57809"
       y="191.01505"
       ry="11.642077" />
    <ellipse
       ry="10.476138"
       rx="24.818764"
       cy="114.46912"
       cx="332.83136"
       id="ellipse1596"
       style="opacity:1;fill:#ffffff;fill-opacity:1;stroke:none;stroke-width:0.991957;stroke-linecap:round;stroke-linejoin:round"
       transform="rotate(3.7852719)" />
    <ellipse
       inkscape:transform-center-y="-10.056419"
       inkscape:transform-center-x="11.195323"
       transform="matrix(0.99798807,0.06340192,-0.06873981,0.99763462,0,0)"
       style="opacity:1;fill:#ffffff;fill-opacity:1;stroke:none;stroke-width:0.440555;stroke-linecap:round;stroke-linejoin:round"
       id="ellipse1594"
       cx="366.58871"
       cy="125.59732"
       rx="11.246711"
       ry="4.56006" />
  </g>
</svg>
