<?xml version="1.0" encoding="UTF-8" standalone="no"?>
<svg
   xmlns:dc="http://purl.org/dc/elements/1.1/"
   xmlns:cc="http://creativecommons.org/ns#"
   xmlns:rdf="http://www.w3.org/1999/02/22-rdf-syntax-ns#"
   xmlns:svg="http://www.w3.org/2000/svg"
   xmlns="http://www.w3.org/2000/svg"
   xmlns:sodipodi="http://sodipodi.sourceforge.net/DTD/sodipodi-0.dtd"
   xmlns:inkscape="http://www.inkscape.org/namespaces/inkscape"
   width="600mm"
   height="600mm"
   viewBox="0 0 600 600"
   version="1.1"
   id="svg901"
   inkscape:version="1.0 (4035a4fb49, 2020-05-01)"
   sodipodi:docname="lollipop2.svg">
  <defs
     id="defs895" />
  <sodipodi:namedview
     id="base"
     pagecolor="#ffffff"
     bordercolor="#666666"
     borderopacity="1.0"
     inkscape:pageopacity="0.0"
     inkscape:pageshadow="2"
     inkscape:zoom="0.33205208"
     inkscape:cx="1133.8583"
     inkscape:cy="1133.8583"
     inkscape:document-units="mm"
     inkscape:current-layer="layer1"
     inkscape:document-rotation="0"
     showgrid="false"
     inkscape:window-width="1424"
     inkscape:window-height="1019"
     inkscape:window-x="192"
     inkscape:window-y="0"
     inkscape:window-maximized="0" />
  <metadata
     id="metadata898">
    <rdf:RDF>
      <cc:Work
         rdf:about="">
        <dc:format>image/svg+xml</dc:format>
        <dc:type
           rdf:resource="http://purl.org/dc/dcmitype/StillImage" />
        <dc:title />
      </cc:Work>
    </rdf:RDF>
  </metadata>
  <g
     inkscape:label="Layer 1"
     inkscape:groupmode="layer"
     id="layer1">
    <g
       id="g2144">
      <rect
         style="opacity:0.747541;fill:#c87137;fill-opacity:1;stroke:none;stroke-width:4.58959;stroke-linecap:round;stroke-linejoin:round"
         id="rect1488-4"
         width="223.65852"
         height="19.426012"
         x="-544.79944"
         y="304.9942"
         ry="9.713006"
         transform="matrix(0.0032891,-0.99999459,0.99996997,0.00774937,0,0)" />
      <rect
         ry="7.5846996"
         y="301.20206"
         x="-544.79944"
         height="19.426012"
         width="223.65852"
         id="rect1469-2"
         style="fill:#ddab7f;fill-opacity:1;stroke:none;stroke-width:4.58959;stroke-linecap:round;stroke-linejoin:round"
         transform="matrix(0.0032891,-0.99999459,0.99996997,0.00774937,0,0)" />
      <rect
         ry="7.5846996"
         y="288.32614"
         x="-544.79944"
         height="19.426012"
         width="223.65852"
         id="rect1486-1"
         style="fill:#ffe6d5;fill-opacity:1;stroke:none;stroke-width:4.58959;stroke-linecap:round;stroke-linejoin:round"
         transform="matrix(0.0032891,-0.99999459,0.99996997,0.00774937,0,0)" />
      <rect
         style="fill:#f1c79b;fill-opacity:1;stroke:none;stroke-width:4.58959;stroke-linecap:round;stroke-linejoin:round"
         id="rect1469-1-0"
         width="223.65852"
         height="19.426012"
         x="-544.79944"
         y="291.42883"
         ry="7.5846996"
         transform="matrix(0.0032891,-0.99999459,0.99996997,0.00774937,0,0)" />
      <ellipse
         style="opacity:1;fill:#e697eb;fill-opacity:1;stroke:#db68e2;stroke-width:6.37945;stroke-linecap:round;stroke-linejoin:round;stroke-opacity:1"
         id="path1467"
         cx="304.61826"
         cy="237.74503"
         rx="104.50004"
         ry="102.90642" />
      <path
         id="ellipse1536"
         style="opacity:1;fill:#ffffff;fill-opacity:1;stroke:none;stroke-width:5.4102;stroke-linecap:round;stroke-linejoin:round"
         d="m 281.44235,149.43122 c -9.54206,0.16612 -19.03848,2.30978 -27.97138,6.29454 -8.89188,3.94632 -17.25261,9.78958 -24.35283,17.19201 -9.5736,9.90655 -16.99857,22.68975 -21.25816,36.66262 -3.61892,11.88712 -4.97811,24.66417 -3.93939,37.18524 0.73092,8.92184 2.64642,17.76529 5.71093,26.06648 3.67244,9.90993 8.98157,19.12459 15.48757,26.91085 7.55394,9.08651 16.81812,16.29764 26.97312,21.05936 11.62938,5.48036 24.34232,7.79433 36.8327,6.57583 5.9597,-0.55396 11.88569,-1.8696 17.56185,-3.90483 0.91729,-0.25421 -0.006,-0.18207 -0.45054,-0.19458 -18.68664,-0.35219 -37.36511,-6.85858 -52.72715,-19.16154 -11.95016,-9.6281 -21.74885,-23.00297 -27.22113,-38.60206 -6.30633,-17.89395 -6.46079,-38.61209 -0.0835,-56.5113 5.6058,-16.19012 15.84435,-30.04648 28.40574,-39.72975 13.1331,-10.24377 28.6384,-16.27761 44.42731,-17.89285 -5.71189,-1.36585 -11.55304,-2.01005 -17.39517,-1.95002 z" />
      <path
         id="path1467-3"
         style="opacity:1;fill:#df79e5;fill-opacity:1;stroke:none;stroke-width:6.37945;stroke-linecap:round;stroke-linejoin:round"
         inkscape:transform-center-x="-14.342629"
         inkscape:transform-center-y="-114.74104"
         d="m 366.29192,157.23868 c 12.94163,16.69516 20.73829,37.37949 21.7065,58.50375 1.14079,23.14721 -5.78821,46.61803 -19.40458,65.38146 -12.62708,17.57357 -30.78409,31.1087 -51.25515,38.13702 -19.77503,6.88698 -41.58064,7.85405 -61.86458,2.6173 -5.75292,-1.4672 -11.38223,-3.41357 -16.81891,-5.79773 14.15241,11.35575 31.43947,18.84436 49.4491,21.55609 17.67784,2.66532 36.11647,0.65091 52.85298,-5.78727 16.48065,-6.30151 31.28027,-16.91704 42.53583,-30.59736 10.18146,-12.29638 17.38446,-27.14521 20.72366,-42.80792 2.44117,-11.40922 2.91518,-23.34701 1.25376,-34.92794 -2.86046,-20.4725 -12.29346,-40.03477 -26.5891,-55.04179 -3.9288,-4.15111 -8.16464,-7.95301 -12.72037,-11.40162 0.0436,0.0553 0.0872,0.11067 0.13086,0.16601 z" />
      <rect
         ry="14.908905"
         y="232.91203"
         x="191.75558"
         height="29.817812"
         width="223.66016"
         id="rect1488"
         style="opacity:0.747541;fill:#901d97;fill-opacity:1;stroke:none;stroke-width:5.68619;stroke-linecap:round;stroke-linejoin:round" />
      <rect
         style="opacity:1;fill:#db68e2;fill-opacity:1;stroke:none;stroke-width:5.68619;stroke-linecap:round;stroke-linejoin:round"
         id="rect1469"
         width="223.66016"
         height="29.817812"
         x="191.75558"
         y="227.09126"
         ry="11.642077" />
      <rect
         style="opacity:1;fill:#f0fbfb;fill-opacity:1;stroke:none;stroke-width:5.68619;stroke-linecap:round;stroke-linejoin:round"
         id="rect1486"
         width="223.66016"
         height="29.817812"
         x="191.75558"
         y="207.3275"
         ry="11.642077" />
      <rect
         ry="11.642077"
         y="212.08994"
         x="191.75558"
         height="29.817812"
         width="223.66016"
         id="rect1469-1"
         style="opacity:1;fill:#e697eb;fill-opacity:1;stroke:none;stroke-width:5.68619;stroke-linecap:round;stroke-linejoin:round" />
      <ellipse
         transform="rotate(3.7852719)"
         style="opacity:1;fill:#ffffff;fill-opacity:1;stroke:none;stroke-width:0.991957;stroke-linecap:round;stroke-linejoin:round"
         id="ellipse1596"
         cx="337.39322"
         cy="135.28827"
         rx="24.818764"
         ry="10.476138" />
      <ellipse
         ry="4.56006"
         rx="11.246711"
         cy="146.42865"
         cx="371.20743"
         id="ellipse1594"
         style="opacity:1;fill:#ffffff;fill-opacity:1;stroke:none;stroke-width:0.440555;stroke-linecap:round;stroke-linejoin:round"
         transform="matrix(0.99798807,0.06340192,-0.06873981,0.99763462,0,0)"
         inkscape:transform-center-x="11.195323"
         inkscape:transform-center-y="-10.056419" />
    </g>
  </g>
</svg>
