<?xml version="1.0" encoding="UTF-8" standalone="no"?>
<svg
   xmlns:dc="http://purl.org/dc/elements/1.1/"
   xmlns:cc="http://creativecommons.org/ns#"
   xmlns:rdf="http://www.w3.org/1999/02/22-rdf-syntax-ns#"
   xmlns:svg="http://www.w3.org/2000/svg"
   xmlns="http://www.w3.org/2000/svg"
   xmlns:xlink="http://www.w3.org/1999/xlink"
   xmlns:sodipodi="http://sodipodi.sourceforge.net/DTD/sodipodi-0.dtd"
   xmlns:inkscape="http://www.inkscape.org/namespaces/inkscape"
   sodipodi:docname="orange.svg"
   inkscape:version="1.0 (4035a4fb49, 2020-05-01)"
   id="svg8"
   version="1.1"
   viewBox="0 0 600 600"
   height="600mm"
   width="600mm">
  <defs
     id="defs2" />
  <sodipodi:namedview
     inkscape:window-maximized="0"
     inkscape:window-y="0"
     inkscape:window-x="160"
     inkscape:window-height="991"
     inkscape:window-width="1424"
     showgrid="false"
     inkscape:document-rotation="0"
     inkscape:current-layer="g977"
     inkscape:document-units="mm"
     inkscape:cy="758.51208"
     inkscape:cx="1133.8583"
     inkscape:zoom="0.31970486"
     inkscape:pageshadow="2"
     inkscape:pageopacity="0.0"
     borderopacity="1.0"
     bordercolor="#666666"
     pagecolor="#ffffff"
     id="base" />
  <metadata
     id="metadata5">
    <rdf:RDF>
      <cc:Work
         rdf:about="">
        <dc:format>image/svg+xml</dc:format>
        <dc:type
           rdf:resource="http://purl.org/dc/dcmitype/StillImage" />
        <dc:title></dc:title>
      </cc:Work>
    </rdf:RDF>
  </metadata>
  <g
     id="layer1"
     inkscape:groupmode="layer"
     inkscape:label="Layer 1">
    <g
       id="g977">
      <path
         id="path835"
         style="fill:#ff9317;fill-opacity:1;stroke:#c96c00;stroke-width:35.4006;stroke-linecap:round;stroke-linejoin:round;stroke-opacity:1"
         d="m 1228.6562,611.32812 a 534.08966,586.56162 70.955107 0 0 -173.6816,24.26368 549.08164,534.08965 0 0 0 -77.37304,-5.33008 549.08164,534.08965 0 0 0 -549.08203,534.08988 549.08164,534.08965 0 0 0 549.08203,534.0898 549.08164,534.08965 0 0 0 112.66014,-11.3652 534.08966,586.56162 70.955107 0 0 636.5528,-347.2168 534.08966,586.56162 70.955107 0 0 -297.7676,-694.51565 534.08966,586.56162 70.955107 0 0 -200.3907,-34.01563 z"
         transform="scale(0.26458333)" />
      <path
         id="path918"
         style="opacity:0.436066;fill:#e48330;fill-opacity:1;stroke:none;stroke-width:5.33154;stroke-linecap:round;stroke-linejoin:round;stroke-opacity:1"
         d="m 221.12406,215.75977 a 113.49828,62.606711 84.531569 0 0 -2.01634,0.34664 115.19908,59.289551 81.897793 0 0 -34.66197,120.22277 115.19908,59.289551 81.897793 0 0 62.05619,104.85514 116.53594,62.610047 84.406381 0 1 -0.18696,0.10237 113.49828,62.606711 84.531569 0 0 11.9087,-4.07736 112.1903,59.289551 81.897793 0 1 -61.64181,-101.94447 112.1903,59.289551 81.897793 0 1 38.8571,-118.58094 113.49828,62.606711 84.531569 0 0 -14.31493,-0.92431 z m 5.33743,229.83577 a 115.19908,59.289551 81.897793 0 1 -0.14659,0.0851 112.1903,59.289547 81.897793 0 0 0.15556,-0.0221 112.1903,59.289547 81.897793 0 0 0.27338,-0.0399 116.53594,62.610047 84.406381 0 1 -0.28238,-0.0232 z" />
      <path
         d="m 295.31123,182.82409 a 62.620511,129.19681 2.1034172 0 0 -2.04507,0.0672 59.289603,131.16164 0 0 0 -51.26015,129.95296 59.289603,131.16164 0 0 0 46.65858,128.15079 62.622654,132.65714 2.0166294 0 1 -0.19952,0.0855 62.620511,129.19681 2.1034172 0 0 12.3645,-2.68504 59.289603,127.73595 0 0 1 -46.65856,-124.80338 59.289603,127.73595 0 0 1 55.182,-127.4291 62.620511,129.19681 2.1034172 0 0 -14.04178,-3.33898 z m -27.10878,259.92739 a 59.289603,131.16164 0 0 1 -0.15712,0.0724 59.289601,127.73595 0 0 0 0.15712,0 59.289601,127.73595 0 0 0 0.27628,-8.7e-4 62.622654,132.65714 2.0166294 0 1 -0.27628,-0.0715 z"
         style="opacity:0.377049;fill:#e48330;fill-opacity:1;stroke:none;stroke-width:5.68896;stroke-linecap:round;stroke-linejoin:round;stroke-opacity:1"
         id="path918-8" />
      <path
         id="path965"
         style="opacity:0.406557;fill:#c87349;fill-opacity:1;stroke:none;stroke-width:5.41372;stroke-linecap:round;stroke-linejoin:round;stroke-opacity:1"
         d="m 334.60882,209.07695 a 114.21359,64.147168 87.274294 0 1 2.09547,0.0594 60.75079,115.92052 0 0 1 52.52345,114.85229 60.75079,115.92052 0 0 1 -47.80848,113.25953 117.26995,64.150824 87.406903 0 0 0.20444,0.0755 114.21359,64.147168 87.274294 0 1 -12.66922,-2.37303 60.75079,112.8929 0 0 0 47.80845,-110.3011 60.75079,112.8929 0 0 0 -56.54195,-112.6217 114.21359,64.147168 87.274294 0 1 14.38784,-2.95099 z m 27.77687,229.72355 a 60.75079,115.92052 0 0 0 0.16099,0.064 60.750788,112.8929 0 0 1 -0.16099,0 60.750788,112.8929 0 0 1 -0.28309,-0.001 117.26995,64.150824 87.406903 0 0 0.28309,-0.0632 z" />
      <path
         id="path847"
         style="opacity:1;fill:#dd7f36;fill-opacity:1;stroke:none;stroke-width:9.36641;stroke-linecap:round;stroke-linejoin:round;stroke-opacity:1"
         d="m 426.69752,205.66614 c 10.90635,20.78905 16.21165,44.48857 15.10466,67.94508 -1.05283,24.03887 -8.48347,47.68685 -20.92534,68.25094 -14.52112,24.16109 -35.60437,44.21011 -60.12234,58.04596 -27.86351,15.81864 -60.17735,23.77748 -92.20765,22.42469 -3.93469,-0.1382 -7.8619,-0.54779 -11.77953,-0.84878 -30.98167,6.17472 -63.88503,2.46921 -92.65183,-10.62062 16.30696,13.95576 35.83987,24.07489 56.58984,29.52734 16.955,4.43755 34.79679,5.7871 52.2105,3.94083 4.47537,-0.46504 8.92984,-1.18165 13.32966,-2.00153 2.27528,-0.33571 4.54739,0.25455 6.82232,0.33188 13.65849,1.14577 27.48927,0.47422 40.95012,-1.85263 19.54878,-3.3756 38.45025,-10.26908 55.56041,-20.2588 19.30092,-11.28364 36.43348,-26.64336 49.41996,-44.94295 6.93276,-9.7835 12.78968,-20.55756 17.06829,-31.72114 6.46591,-16.75817 9.67734,-34.78299 8.99812,-52.74566 -0.69705,-19.44524 -5.94603,-38.80102 -15.38434,-55.88883 -6.10912,-11.11748 -13.90619,-21.32466 -23.03922,-30.21689 -0.72796,-0.81105 -0.51375,-0.37156 -0.10961,0.32003 0.0553,0.10369 0.11065,0.20739 0.16598,0.31108 z" />
      <path
         id="path859"
         style="opacity:0.822951;fill:#ffffff;fill-opacity:1;stroke:none;stroke-width:9.36641;stroke-linecap:round;stroke-linejoin:round;stroke-opacity:1"
         d="m 322.81641,165.46875 c -14.06248,0.22616 -28.0698,2.2363 -41.60953,5.97002 -2.75117,0.86367 -5.59194,-0.15838 -8.37663,-0.26309 -20.16765,-2.00862 -40.79492,0.32671 -60.00133,6.71305 -26.51002,8.76056 -50.36464,25.45507 -67.41487,47.60783 -11.66639,15.12792 -20.16063,32.67219 -24.62235,51.31175 -4.15356,17.29876 -4.82743,35.48269 -1.91912,53.00701 3.29272,20.01614 11.17894,39.24089 22.86386,55.82567 1.89238,2.68576 3.8775,5.31506 5.96668,7.87659 -11.52955,-23.23661 -16.65681,-49.66217 -14.29283,-75.51584 2.19533,-24.9586 11.1348,-49.28578 25.64666,-69.71354 14.86851,-21.08144 35.41752,-38.08265 58.85533,-48.84503 23.97348,-11.10377 50.87281,-15.79237 77.18961,-13.45533 2.35302,0.17626 4.70753,0.51318 7.04543,0.72631 28.98801,-8.06806 60.16754,-8.5187 89.23661,-0.58575 8.06847,2.20587 15.96435,5.04903 23.57505,8.52004 -9.54841,-7.21582 -20.17393,-13.2115 -31.24263,-17.77525 -19.22628,-7.94628 -40.11807,-11.65568 -60.89994,-11.40444 z" />
      <ellipse
         style="opacity:0.822951;fill:#ffffff;fill-opacity:1;stroke:none;stroke-width:8.46667;stroke-linecap:round;stroke-linejoin:round;stroke-opacity:1"
         id="path871"
         cx="120.12095"
         cy="293.23871"
         rx="27.724136"
         ry="9.1034479"
         transform="rotate(-23.094586)" />
      <ellipse
         style="opacity:0.822951;fill:#a05a2c;fill-opacity:1;stroke:none;stroke-width:6.5882;stroke-linecap:round;stroke-linejoin:round;stroke-opacity:1"
         id="ellipse892"
         cx="418.34097"
         cy="163.41911"
         rx="25.101566"
         ry="6.0879536"
         transform="matrix(0.99466768,0.10313195,-0.19157808,0.98147738,0,0)" />
      <path
         inkscape:transform-center-y="2.4579184"
         inkscape:transform-center-x="10.241326"
         id="path871-7"
         style="opacity:0.822951;fill:#a05a2c;fill-opacity:1;stroke:none;stroke-width:6.66782;stroke-linecap:round;stroke-linejoin:round;stroke-opacity:1"
         d="m 388.29663,216.4313 c -0.43646,0.49933 -0.84584,0.88516 -1.22153,1.55604 2.00943,2.50534 3.92421,3.2883 5.77261,4.26702 4.48823,2.03015 8.71256,2.08564 12.66524,0.7836 1.73348,-0.69058 3.46629,-1.70067 4.81037,-3.8946 -2.20916,-2.51922 -4.3191,-3.59303 -6.37882,-4.52297 -3.43003,-1.37577 -6.78632,-1.57746 -9.92549,-1.08547 -2.04666,0.3742 -3.96482,1.19666 -5.72238,2.89638 z" />
      <ellipse
         style="opacity:1;fill:#b16428;fill-opacity:1;stroke:none;stroke-width:6.74607;stroke-linecap:round;stroke-linejoin:round;stroke-opacity:1"
         id="ellipse1010"
         cx="316.71841"
         cy="214.71877"
         rx="25.35096"
         ry="6.3204131"
         transform="matrix(0.99997113,-0.00759817,0.11682171,0.9931529,0,0)" />
      <ellipse
         style="opacity:1;fill:#b16428;fill-opacity:1;stroke:none;stroke-width:5.12624;stroke-linecap:round;stroke-linejoin:round;stroke-opacity:1"
         id="ellipse1034"
         cx="372.63318"
         cy="200.93446"
         rx="14.705025"
         ry="6.2917295"
         transform="matrix(0.99795068,0.06398789,-0.00900978,0.99995941,0,0)" />
      <ellipse
         style="opacity:1;fill:#b16428;fill-opacity:1;stroke:none;stroke-width:4.01316;stroke-linecap:round;stroke-linejoin:round;stroke-opacity:1"
         id="ellipse1036"
         cx="344.77008"
         cy="184.60825"
         rx="14.686244"
         ry="3.8610082"
         transform="matrix(0.99922688,0.03931464,-0.01468194,0.99989221,0,0)" />
      <use
         height="100%"
         width="100%"
         id="use1047"
         xlink:href="#path835"
         y="0"
         x="0" />
      <use
         height="100%"
         width="100%"
         id="use1049"
         xlink:href="#path918"
         y="0"
         x="0" />
      <use
         height="100%"
         width="100%"
         id="use1051"
         xlink:href="#path918-8"
         y="0"
         x="0" />
      <use
         height="100%"
         width="100%"
         id="use1053"
         xlink:href="#path965"
         y="0"
         x="0" />
      <use
         height="100%"
         width="100%"
         id="use1055"
         xlink:href="#path847"
         y="0"
         x="0" />
      <use
         height="100%"
         width="100%"
         id="use1057"
         xlink:href="#path859"
         y="0"
         x="0" />
      <use
         height="100%"
         width="100%"
         id="use1059"
         xlink:href="#path871"
         y="0"
         x="0" />
      <use
         height="100%"
         width="100%"
         id="use1061"
         xlink:href="#ellipse892"
         y="0"
         x="0" />
      <use
         height="100%"
         width="100%"
         id="use1063"
         inkscape:transform-center-y="2.4579184"
         inkscape:transform-center-x="10.241326"
         xlink:href="#path871-7"
         y="0"
         x="0" />
      <use
         height="100%"
         width="100%"
         id="use1065"
         xlink:href="#ellipse1010"
         y="0"
         x="0" />
      <use
         height="100%"
         width="100%"
         id="use1067"
         xlink:href="#ellipse1034"
         y="0"
         x="0" />
      <use
         height="100%"
         width="100%"
         id="use1069"
         xlink:href="#ellipse1036"
         y="0"
         x="0" />
      <g
         id="g1107">
        <use
           x="0"
           y="0"
           xlink:href="#use1047"
           id="use1071"
           width="100%"
           height="100%" />
        <use
           x="0"
           y="0"
           xlink:href="#use1049"
           id="use1073"
           width="100%"
           height="100%" />
        <use
           x="0"
           y="0"
           xlink:href="#use1051"
           id="use1075"
           width="100%"
           height="100%" />
        <use
           x="0"
           y="0"
           xlink:href="#use1053"
           id="use1077"
           width="100%"
           height="100%" />
        <use
           x="0"
           y="0"
           xlink:href="#use1055"
           id="use1079"
           width="100%"
           height="100%" />
        <use
           x="0"
           y="0"
           xlink:href="#use1057"
           id="use1081"
           width="100%"
           height="100%" />
        <use
           x="0"
           y="0"
           xlink:href="#use1059"
           id="use1083"
           width="100%"
           height="100%" />
        <use
           x="0"
           y="0"
           xlink:href="#use1061"
           id="use1085"
           width="100%"
           height="100%" />
        <use
           x="0"
           y="0"
           xlink:href="#use1063"
           inkscape:transform-center-x="10.241326"
           inkscape:transform-center-y="2.4579184"
           id="use1087"
           width="100%"
           height="100%" />
        <use
           x="0"
           y="0"
           xlink:href="#use1065"
           id="use1089"
           width="100%"
           height="100%" />
        <use
           x="0"
           y="0"
           xlink:href="#use1067"
           id="use1091"
           width="100%"
           height="100%" />
        <use
           x="0"
           y="0"
           xlink:href="#use1069"
           id="use1093"
           width="100%"
           height="100%" />
      </g>
    </g>
    <g
       transform="translate(-8.65557,-9.09193)"
       id="g1008">
      <rect
         style="opacity:1;fill:#b16428;fill-opacity:1;stroke:none;stroke-width:3.98768;stroke-linecap:round;stroke-linejoin:round;stroke-miterlimit:4;stroke-dasharray:none;stroke-opacity:1"
         id="rect979"
         width="14.057793"
         height="25.657478"
         x="183.50089"
         y="-316.73724"
         ry="8.1989088"
         rx="7.0288963"
         transform="matrix(-0.0284158,0.99959619,-0.99994686,-0.01030948,0,0)"
         inkscape:transform-center-y="-4.5370321"
         inkscape:transform-center-x="4.5763018e-06" />
      <rect
         inkscape:transform-center-x="1.3616057e-05"
         inkscape:transform-center-y="-4.5370297"
         transform="matrix(-0.02318017,0.9997313,-0.99992012,-0.01263942,0,0)"
         rx="7.0279465"
         ry="6.6875296"
         y="-313.46765"
         x="176.42747"
         height="20.927801"
         width="14.055893"
         id="rect981"
         style="opacity:1;fill:#00ff00;fill-opacity:1;stroke:#00bd00;stroke-width:3.60119;stroke-linecap:round;stroke-linejoin:round;stroke-miterlimit:4;stroke-dasharray:none;stroke-opacity:1" />
      <path
         id="rect983"
         style="opacity:1;fill:#ffffff;fill-opacity:1;stroke:none;stroke-width:3.60108;stroke-linecap:round;stroke-linejoin:round;stroke-miterlimit:4;stroke-dasharray:none;stroke-opacity:1"
         inkscape:transform-center-x="1.3616057e-05"
         inkscape:transform-center-y="-4.5370297"
         d="m 294.55078,181.76953 c -2.9236,0.2664 -5.05134,3.28533 -4.6776,6.12939 0.21289,2.16581 1.87175,4.23943 4.04088,4.62647 -1.24728,-4.03414 0.82378,-8.85071 4.74451,-10.52822 0.9468,-0.29564 -0.33715,-0.17506 -0.72572,-0.20979 -1.127,10e-4 -2.25589,-0.0505 -3.38207,-0.0179 z" />
      <path
         id="rect993"
         style="opacity:0.478688;fill:#0000ff;fill-opacity:1;stroke:none;stroke-width:3.60108;stroke-linecap:round;stroke-linejoin:round;stroke-miterlimit:4;stroke-dasharray:none;stroke-opacity:1"
         inkscape:transform-center-x="1.3616057e-05"
         inkscape:transform-center-y="-4.5370297"
         d="m 306.1543,184.625 c -0.52865,3.47008 -3.11736,6.65203 -6.56641,7.53516 1.48495,-0.007 2.98239,0.15648 4.37891,-0.24414 2.84154,-1.07456 4.02253,-4.94762 2.32181,-7.45349 -0.14948,-0.33 -0.0899,0.0404 -0.13431,0.16247 z" />
    </g>
  </g>
</svg>
