<?xml version="1.0" standalone="no"?>
<!DOCTYPE svg PUBLIC "-//W3C//DTD SVG 20010904//EN"
 "http://www.w3.org/TR/2001/REC-SVG-20010904/DTD/svg10.dtd">
<svg version="1.0" xmlns="http://www.w3.org/2000/svg"
 width="700.000000pt" height="700.000000pt" viewBox="0 0 700.000000 700.000000"
 preserveAspectRatio="xMidYMid meet">
<metadata>
Created by potrace 1.11, written by Peter Selinger 2001-2013
</metadata>
<g transform="translate(0.000000,700.000000) scale(0.100000,-0.100000)"
fill="#000000" stroke="none">
<path d="M3380 5654 c-404 -37 -769 -162 -1085 -372 -540 -358 -891 -911 -992
-1562 -24 -159 -24 -491 0 -650 39 -249 99 -442 207 -665 118 -243 249 -426
444 -620 745 -739 1895 -868 2788 -314 142 88 269 190 403 324 170 170 311
360 403 542 l31 60 228 6 c333 8 529 47 699 142 118 66 212 183 230 285 5 32
3 30 -20 -17 -110 -229 -435 -352 -928 -353 l-176 0 33 84 c74 183 136 429
150 596 10 127 9 123 63 115 145 -21 289 -59 364 -96 48 -24 106 -76 130 -114
23 -39 23 -12 -1 40 -48 106 -191 179 -421 214 -41 7 -84 14 -96 16 -20 4 -21
13 -27 162 -7 178 -32 346 -77 508 -16 61 -30 113 -30 118 0 13 300 7 409 -8
116 -17 335 -67 420 -96 30 -11 56 -19 58 -19 1 0 3 13 3 29 0 28 -3 29 -107
60 -249 72 -466 104 -677 100 l-129 -3 -38 92 c-123 303 -345 615 -587 826
-348 303 -735 483 -1182 551 -103 15 -402 27 -490 19z m480 -119 c229 -35 422
-95 635 -199 232 -114 407 -240 589 -422 203 -204 391 -489 485 -736 10 -26 9
-27 -62 -48 -89 -27 -136 -51 -183 -93 -45 -39 -79 -109 -66 -134 9 -14 10
-14 16 4 10 32 92 102 149 128 29 13 80 31 113 38 l62 15 20 -72 c34 -114 49
-183 71 -316 19 -116 33 -352 21 -364 -7 -7 -269 39 -362 64 -233 61 -388 165
-437 292 -16 42 -20 47 -20 26 -1 -50 39 -136 89 -190 107 -118 305 -195 617
-243 106 -16 113 -19 108 -39 -2 -11 -7 -55 -10 -96 -7 -82 -38 -245 -61 -327
-8 -29 -17 -64 -20 -77 -6 -33 -47 -148 -79 -220 -28 -64 -24 -63 -165 -46
-75 10 -390 70 -446 86 -18 5 -22 1 -26 -25 -4 -29 -2 -32 34 -42 87 -23 330
-69 431 -81 59 -7 107 -16 107 -21 0 -14 -57 -112 -121 -208 -331 -495 -839
-822 -1446 -931 -109 -19 -162 -22 -358 -22 -196 0 -249 3 -358 22 -457 82
-842 280 -1162 597 -128 126 -196 210 -296 362 -414 631 -461 1460 -123 2136
107 213 213 363 374 531 186 194 344 312 574 431 67 35 162 79 211 98 164 65
417 122 625 141 86 8 365 -4 470 -19z"/>
<path d="M3310 5069 c-99 -12 -306 -64 -400 -101 -211 -84 -383 -194 -545
-350 -125 -120 -207 -221 -283 -351 -45 -77 -105 -197 -98 -197 2 0 23 30 47
67 24 38 68 96 97 130 28 34 52 67 52 73 0 5 7 10 16 10 16 0 16 11 -1 53 -6
14 -1 17 34 17 36 0 53 9 129 69 592 465 1490 510 2129 104 147 -92 359 -286
428 -391 30 -45 42 -51 52 -26 7 19 -20 69 -98 184 -344 505 -948 779 -1559
709z"/>
<path d="M2195 4263 c3 -10 230 -426 503 -926 l497 -907 208 2 208 3 470 860
c259 473 486 888 505 923 31 55 33 62 16 62 -18 0 -90 -128 -851 -1522 l-146
-268 -205 0 -205 0 -490 895 c-279 510 -496 895 -503 895 -9 0 -12 -6 -7 -17z"/>
<path d="M6741 2884 c0 -11 3 -14 6 -6 3 7 2 16 -1 19 -3 4 -6 -2 -5 -13z"/>
</g>
</svg>
